<svg width="94" height="14" viewBox="0 0 94 14" fill="none" xmlns="http://www.w3.org/2000/svg">
<path fill-rule="evenodd" clip-rule="evenodd" d="M46.8003 10.4508H45.6213V1.54053H48.7485C49.5258 1.54053 50.1986 1.79149 50.7667 2.29339C51.3348 2.79533 51.6189 3.42791 51.6189 4.19119C51.6189 4.95447 51.3348 5.58705 50.7667 6.089C50.1986 6.59094 49.5258 6.84191 48.7485 6.84191H46.8003V10.4508ZM46.8003 5.74679H48.7739C49.2696 5.74679 49.6669 5.58499 49.9659 5.26146C50.2648 4.93786 50.4146 4.58111 50.4146 4.19119C50.4146 3.80128 50.2648 3.44453 49.9659 3.12099C49.6669 2.7974 49.2696 2.63566 48.7739 2.63566H46.8003V5.74679ZM52.5967 5.08723C53.2033 4.46496 53.9762 4.15385 54.9163 4.15385C55.8564 4.15385 56.6294 4.4629 57.2359 5.08099C57.8424 5.69908 58.1457 6.47267 58.1457 7.40187C58.1457 8.33107 57.8424 9.10471 57.2359 9.72281C56.6294 10.3409 55.8564 10.6499 54.9163 10.6499C53.9762 10.6499 53.2033 10.3409 52.5967 9.72281C51.9902 9.10471 51.687 8.33107 51.687 7.40187C51.687 6.47267 51.9902 5.70114 52.5967 5.08723ZM53.4681 9.00723C53.8785 9.40545 54.3612 9.60459 54.9163 9.60459C55.4715 9.60459 55.9524 9.40339 56.3583 9.00099C56.7637 8.59865 56.9667 8.06561 56.9667 7.40187C56.9667 6.73819 56.7637 6.20515 56.3583 5.80274C55.9524 5.4004 55.4715 5.1992 54.9163 5.1992C54.3612 5.1992 53.8803 5.4004 53.4743 5.80274C53.069 6.20515 52.866 6.73819 52.866 7.40187C52.866 8.06561 53.0665 8.60071 53.4681 9.00723ZM61.6993 10.6499C60.888 10.6499 60.1874 10.3388 59.5976 9.71656C59.0084 9.09435 58.7132 8.32276 58.7132 7.40187C58.7132 6.48097 59.0084 5.70945 59.5976 5.08723C60.1874 4.46496 60.888 4.15385 61.6993 4.15385C62.1777 4.15385 62.6072 4.25345 62.9872 4.45253C63.3679 4.65167 63.6519 4.90052 63.8394 5.1992H63.8908L63.8394 4.35299V1.54053H65.019V10.4508H63.8908V9.60459H63.8394C63.6519 9.90321 63.3679 10.1521 62.9872 10.3513C62.6072 10.5503 62.1777 10.6499 61.6993 10.6499ZM61.8918 9.60459C62.447 9.60459 62.9192 9.40545 63.3078 9.00723C63.6965 8.60901 63.8908 8.07391 63.8908 7.40187C63.8908 6.72988 63.6965 6.19478 63.3078 5.79656C62.9192 5.39834 62.447 5.1992 61.8918 5.1992C61.3447 5.1992 60.875 5.4004 60.482 5.80274C60.089 6.20515 59.8922 6.73819 59.8922 7.40187C59.8922 8.06561 60.089 8.59865 60.482 9.00099C60.875 9.40339 61.3447 9.60459 61.8918 9.60459ZM69.1105 10.6499C68.171 10.6499 67.3974 10.3409 66.7909 9.72281C66.1844 9.10471 65.8812 8.33107 65.8812 7.40187C65.8812 6.47267 66.1844 5.69908 66.7909 5.08099C67.3974 4.4629 68.171 4.15385 69.1105 4.15385C69.8111 4.15385 70.3922 4.31977 70.8533 4.65167C71.315 4.98351 71.6523 5.40246 71.8658 5.90853L70.7896 6.34409C70.4646 5.58081 69.8798 5.1992 69.0338 5.1992C68.5127 5.1992 68.0535 5.40665 67.6561 5.82142C67.2588 6.23625 67.0601 6.76304 67.0601 7.40187C67.0601 8.04069 67.2588 8.56755 67.6561 8.98232C68.0535 9.39715 68.5127 9.60459 69.0338 9.60459C69.9138 9.60459 70.5203 9.22292 70.8533 8.4597L71.9042 8.89521C71.6906 9.39303 71.3472 9.80992 70.8725 10.1459C70.3984 10.4819 69.8111 10.6499 69.1105 10.6499ZM74.7015 10.6499C74.0356 10.6499 73.478 10.4632 73.0293 10.0899C72.5806 9.71656 72.3566 9.22292 72.3566 8.60901C72.3566 7.94527 72.6215 7.42472 73.1512 7.04723C73.681 6.66975 74.3345 6.48097 75.1119 6.48097C75.8038 6.48097 76.3719 6.60543 76.8163 6.85434V6.68011C76.8163 6.23212 76.6585 5.87331 76.3422 5.60367C76.026 5.33402 75.6373 5.1992 75.1762 5.1992C74.834 5.1992 74.5245 5.27801 74.2467 5.43568C73.9694 5.5933 73.7794 5.80899 73.6767 6.08275L72.5998 5.63476C72.7452 5.2697 73.0318 4.93168 73.4588 4.62057C73.8858 4.30941 74.4496 4.15385 75.1502 4.15385C75.9535 4.15385 76.6201 4.38203 77.1498 4.83832C77.6796 5.29462 77.9445 5.93757 77.9445 6.76723V10.4508H76.8163V9.60459H76.7649C76.2952 10.3015 75.6076 10.6499 74.7015 10.6499ZM74.894 9.60459C75.3811 9.60459 75.823 9.42825 76.2203 9.07567C76.6176 8.7231 76.8163 8.30621 76.8163 7.825C76.4833 7.55954 75.9833 7.42678 75.3167 7.42678C74.7442 7.42678 74.3129 7.54706 74.0226 7.78766C73.7324 8.02826 73.5869 8.31033 73.5869 8.63387C73.5869 8.93255 73.7194 9.16903 73.9842 9.34326C74.2491 9.51748 74.5524 9.60459 74.894 9.60459ZM81.3954 10.6499C80.6948 10.6499 80.1156 10.484 79.6588 10.1521C79.2015 9.82028 78.866 9.40545 78.6525 8.90769L79.7034 8.48456C80.037 9.24784 80.6051 9.62945 81.4078 9.62945C81.7754 9.62945 82.0768 9.55064 82.3114 9.39303C82.5465 9.23541 82.6641 9.02797 82.6641 8.77081C82.6641 8.37253 82.3776 8.10295 81.8051 7.96188L80.5364 7.6632C80.1347 7.56366 79.7547 7.37495 79.3958 7.097C79.0375 6.81906 78.858 6.44369 78.858 5.97079C78.858 5.4315 79.1031 4.99388 79.5944 4.65786C80.0858 4.32189 80.6688 4.15385 81.344 4.15385C81.8992 4.15385 82.3949 4.27625 82.8306 4.52097C83.2663 4.76576 83.5782 5.11627 83.7664 5.57257L82.7409 5.98321C82.51 5.44393 82.0316 5.17435 81.3057 5.17435C80.9554 5.17435 80.6602 5.24485 80.4213 5.38585C80.1818 5.52692 80.0623 5.71775 80.0623 5.9583C80.0623 6.30675 80.3402 6.54323 80.8954 6.66769L82.1387 6.95388C82.7279 7.08664 83.1636 7.31475 83.4458 7.63835C83.728 7.96188 83.8685 8.32694 83.8685 8.73347C83.8685 9.281 83.6383 9.73729 83.1766 10.1024C82.7155 10.4674 82.1214 10.6499 81.3954 10.6499ZM87.3968 10.5503C86.7389 10.5503 86.237 10.3803 85.891 10.0402C85.5444 9.69995 85.3718 9.2188 85.3718 8.59659V5.39834H84.2695V4.35299H85.3718V2.48629H86.5507V4.35299H88.0887V5.39834H86.5507V8.50947C86.5507 9.17315 86.833 9.50499 87.3968 9.50499C87.6103 9.50499 87.7897 9.47183 87.9346 9.40545L88.3449 10.3885C88.0887 10.4965 87.7724 10.5503 87.3968 10.5503ZM91.5266 10.6499C90.826 10.6499 90.2474 10.484 89.7906 10.1521C89.3333 9.82028 88.9978 9.40545 88.7843 8.90769L89.8352 8.48456C90.1681 9.24784 90.7363 9.62945 91.5396 9.62945C91.9072 9.62945 92.208 9.55064 92.4432 9.39303C92.6783 9.23541 92.7953 9.02797 92.7953 8.77081C92.7953 8.37253 92.5094 8.10295 91.9369 7.96188L90.6682 7.6632C90.2665 7.56366 89.8865 7.37495 89.5276 7.097C89.1686 6.81906 88.9892 6.44369 88.9892 5.97079C88.9892 5.4315 89.2349 4.99388 89.7262 4.65786C90.2176 4.32189 90.8006 4.15385 91.4758 4.15385C92.031 4.15385 92.5267 4.27625 92.9624 4.52097C93.3981 4.76576 93.71 5.11627 93.8975 5.57257L92.8727 5.98321C92.6418 5.44393 92.1634 5.17435 91.4369 5.17435C91.0866 5.17435 90.792 5.24485 90.5531 5.38585C90.3136 5.52692 90.1941 5.71775 90.1941 5.9583C90.1941 6.30675 90.4714 6.54323 91.0271 6.66769L92.2699 6.95388C92.8597 7.08664 93.2954 7.31475 93.5776 7.63835C93.8592 7.96188 94.0003 8.32694 94.0003 8.73347C94.0003 9.281 93.7694 9.73729 93.3084 10.1024C92.8467 10.4674 92.2532 10.6499 91.5266 10.6499Z" fill="#14142B"/>
<path d="M0.845276 5.54216C0.845276 2.72273 3.2783 0.437988 6.18181 0.437988C7.7838 0.437988 8.92521 1.05049 9.78627 1.84772L8.76498 2.82967C8.15427 2.26577 7.32323 1.82828 6.18181 1.82828C4.06924 1.82828 2.41725 3.48104 2.41725 5.53246C2.41725 7.58387 4.06924 9.23665 6.18181 9.23665C7.55351 9.23665 8.33449 8.70191 8.8351 8.21579C9.24561 7.8172 9.51594 7.24361 9.61602 6.46578H6.18181V5.0755H11.0177C11.0678 5.32829 11.0979 5.61993 11.0979 5.9505C11.0979 7.00052 10.8075 8.29356 9.85633 9.20749C8.92522 10.1408 7.74376 10.6366 6.18181 10.6366C3.2783 10.6366 0.845276 8.35194 0.845276 5.54216ZM14.9526 4.13248C16.8249 4.13248 18.3467 5.513 18.3467 7.41856C18.3467 9.31442 16.8249 10.7047 14.9526 10.7047C13.0803 10.7047 11.5584 9.31442 11.5584 7.41856C11.5584 5.513 13.0803 4.13248 14.9526 4.13248ZM14.9526 9.4019C15.9738 9.4019 16.8649 8.58527 16.8649 7.40886C16.8649 6.22275 15.9738 5.41582 14.9526 5.41582C13.9213 5.41582 13.0403 6.22275 13.0403 7.40886C13.0403 8.58527 13.9313 9.4019 14.9526 9.4019ZM22.3617 4.13248C24.2339 4.13248 25.7558 5.513 25.7558 7.41856C25.7558 9.31442 24.2339 10.7047 22.3617 10.7047C20.4894 10.7047 18.9675 9.31442 18.9675 7.41856C18.9675 5.513 20.4894 4.13248 22.3617 4.13248ZM22.3617 9.4019C23.3829 9.4019 24.274 8.58527 24.274 7.40886C24.274 6.22275 23.3929 5.41582 22.3617 5.41582C21.3304 5.41582 20.4493 6.22275 20.4493 7.40886C20.4493 8.58527 21.3404 9.4019 22.3617 9.4019ZM31.4528 4.23941H32.8746V10.1408C32.8746 12.5714 31.4027 13.563 29.6606 13.563C28.0186 13.563 27.0273 12.4936 26.6569 11.6186L27.9485 11.0936C28.1788 11.6283 28.7395 12.2603 29.6506 12.2603C30.762 12.2603 31.4528 11.5895 31.4528 10.3353V9.85886H31.4027C31.0723 10.2575 30.4315 10.6075 29.6205 10.6075C27.9285 10.6075 26.3766 9.16857 26.3766 7.33108C26.3766 5.47414 27.9285 4.03524 29.6205 4.03524C30.4315 4.03524 31.0723 4.38521 31.4027 4.77415H31.4528V4.23941ZM29.7507 9.31442C30.762 9.31442 31.5629 8.48804 31.5529 7.33108C31.5529 6.17413 30.762 5.32829 29.7507 5.32829C28.7295 5.32829 27.8684 6.17413 27.8684 7.33108C27.8684 8.47834 28.7295 9.31442 29.7507 9.31442ZM33.8858 10.4811V0.826878H35.3675V10.4811H33.8858ZM39.4428 9.4019C40.2034 9.4019 40.7239 9.04217 41.1144 8.49774L42.2662 9.24635C41.8856 9.78108 40.9944 10.7047 39.4428 10.7047C37.52 10.7047 36.0885 9.2561 36.0885 7.41856C36.0885 5.46438 37.5404 4.13248 39.2825 4.13248C41.0346 4.13248 41.8955 5.48384 42.1758 6.22275L42.3262 6.59217L37.8003 8.41026C38.1512 9.06163 38.6816 9.4019 39.4428 9.4019ZM39.3327 5.39636C38.5714 5.39636 37.52 6.04774 37.5602 7.31163L40.5841 6.09636C40.4238 5.67831 39.9231 5.39636 39.3327 5.39636Z" fill="#14142B"/>
</svg>
