<svg width="23" height="22" viewBox="0 0 23 22" fill="none" xmlns="http://www.w3.org/2000/svg">
<path d="M9.91225 7.00049V10.3343V11.6668V15.0005H12.7443V11.6668V10.3343V7.00049H9.91225Z" fill="#FAB908"/>
<path d="M1.41624 11.625C2.19829 11.625 2.83227 11.0094 2.83227 10.25C2.83227 9.49061 2.19829 8.875 1.41624 8.875C0.634191 8.875 0.000213623 9.49061 0.000213623 10.25C0.000213623 11.0094 0.634191 11.625 1.41624 11.625Z" fill="#0066D9"/>
<path d="M1.41624 13.125C2.19829 13.125 2.83227 12.5094 2.83227 11.75C2.83227 10.9906 2.19829 10.375 1.41624 10.375C0.634191 10.375 0.000213623 10.9906 0.000213623 11.75C0.000213623 12.5094 0.634191 13.125 1.41624 13.125Z" fill="#0066D9"/>
<path d="M2.83227 10.2505H0.000213623V11.7505H2.83227V10.2505Z" fill="#0066D9"/>
<path d="M21.2404 13.125C22.0225 13.125 22.6564 12.5094 22.6564 11.75C22.6564 10.9906 22.0225 10.375 21.2404 10.375C20.4584 10.375 19.8244 10.9906 19.8244 11.75C19.8244 12.5094 20.4584 13.125 21.2404 13.125Z" fill="#4285F4"/>
<path d="M21.2404 11.625C22.0225 11.625 22.6564 11.0094 22.6564 10.25C22.6564 9.49061 22.0225 8.875 21.2404 8.875C20.4584 8.875 19.8244 9.49061 19.8244 10.25C19.8244 11.0094 20.4584 11.625 21.2404 11.625Z" fill="#4285F4"/>
<path d="M19.8244 11.7505H22.6564V10.2505H19.8244V11.7505Z" fill="#4285F4"/>
<path d="M6.30782 16.1255C7.08984 16.1255 7.72383 15.5099 7.72383 14.7505C7.72383 13.9911 7.08984 13.3755 6.30782 13.3755C5.52577 13.3755 4.8918 13.9911 4.8918 14.7505C4.8918 15.5099 5.52577 16.1255 6.30782 16.1255Z" fill="#EA4335"/>
<path d="M6.30782 17.6251C7.08984 17.6251 7.72383 17.0095 7.72383 16.2501C7.72383 15.4907 7.08984 14.875 6.30782 14.875C5.52577 14.875 4.8918 15.4907 4.8918 16.2501C4.8918 17.0095 5.52577 17.6251 6.30782 17.6251Z" fill="#EA4335"/>
<path d="M7.72383 14.7505H4.8918V16.2505H7.72383V14.7505Z" fill="#EA4335"/>
<path d="M6.30782 7.12499C7.08984 7.12499 7.72383 6.50938 7.72383 5.75001C7.72383 4.99061 7.08984 4.375 6.30782 4.375C5.52577 4.375 4.8918 4.99061 4.8918 5.75001C4.8918 6.50938 5.52577 7.12499 6.30782 7.12499Z" fill="#EA4335"/>
<path d="M6.30782 11.9995C7.08984 11.9995 7.72383 11.3839 7.72383 10.6245C7.72383 9.86512 7.08984 9.24951 6.30782 9.24951C5.52577 9.24951 4.8918 9.86512 4.8918 10.6245C4.8918 11.3839 5.52577 11.9995 6.30782 11.9995Z" fill="#EA4335"/>
<path d="M7.72383 5.75H4.8918V10.6563H7.72383V5.75Z" fill="#EA4335"/>
<path d="M16.3489 8.62551C17.1309 8.62551 17.7649 8.0099 17.7649 7.2505C17.7649 6.4911 17.1309 5.87549 16.3489 5.87549C15.5668 5.87549 14.9329 6.4911 14.9329 7.2505C14.9329 8.0099 15.5668 8.62551 16.3489 8.62551Z" fill="#34A853"/>
<path d="M16.3489 7.12499C17.1309 7.12499 17.7649 6.50938 17.7649 5.75001C17.7649 4.99061 17.1309 4.375 16.3489 4.375C15.5668 4.375 14.9329 4.99061 14.9329 5.75001C14.9329 6.50938 15.5668 7.12499 16.3489 7.12499Z" fill="#34A853"/>
<path d="M14.9327 7.25H17.7648V5.75H14.9327V7.25Z" fill="#34A853"/>
<path d="M11.3283 4.2505C12.1103 4.2505 12.7443 3.63489 12.7443 2.87549C12.7443 2.1161 12.1103 1.50049 11.3283 1.50049C10.5462 1.50049 9.91225 2.1161 9.91225 2.87549C9.91225 3.63489 10.5462 4.2505 11.3283 4.2505Z" fill="#FAB908"/>
<path d="M11.3283 2.75001C12.1103 2.75001 12.7443 2.1344 12.7443 1.37501C12.7443 0.615613 12.1103 0 11.3283 0C10.5462 0 9.91225 0.615613 9.91225 1.37501C9.91225 2.1344 10.5462 2.75001 11.3283 2.75001Z" fill="#FAB908"/>
<path d="M9.91238 2.87501H12.7445V1.375H9.91238V2.87501Z" fill="#FAB908"/>
<path d="M11.3283 22C12.1103 22 12.7443 21.3844 12.7443 20.625C12.7443 19.8656 12.1103 19.25 11.3283 19.25C10.5462 19.25 9.91225 19.8656 9.91225 20.625C9.91225 21.3844 10.5462 22 11.3283 22Z" fill="#FAB908"/>
<path d="M11.3283 20.5005C12.1103 20.5005 12.7443 19.8849 12.7443 19.1255C12.7443 18.3661 12.1103 17.7505 11.3283 17.7505C10.5462 17.7505 9.91225 18.3661 9.91225 19.1255C9.91225 19.8849 10.5462 20.5005 11.3283 20.5005Z" fill="#FAB908"/>
<path d="M9.91238 20.6255H12.7445V19.1255H9.91238V20.6255Z" fill="#FAB908"/>
<path d="M16.3489 17.6251C17.1309 17.6251 17.7649 17.0095 17.7649 16.2501C17.7649 15.4907 17.1309 14.875 16.3489 14.875C15.5668 14.875 14.9329 15.4907 14.9329 16.2501C14.9329 17.0095 15.5668 17.6251 16.3489 17.6251Z" fill="#34A853"/>
<path d="M16.3489 12.7505C17.1309 12.7505 17.7649 12.1349 17.7649 11.3755C17.7649 10.6161 17.1309 10.0005 16.3489 10.0005C15.5668 10.0005 14.9329 10.6161 14.9329 11.3755C14.9329 12.1349 15.5668 12.7505 16.3489 12.7505Z" fill="#34A853"/>
<path d="M14.9327 16.2506H17.7648V11.3755H14.9327V16.2506Z" fill="#34A853"/>
<path d="M11.3283 8.37553C12.1103 8.37553 12.7443 7.75986 12.7443 7.00052C12.7443 6.24113 12.1103 5.62549 11.3283 5.62549C10.5462 5.62549 9.91225 6.24113 9.91225 7.00052C9.91225 7.75986 10.5462 8.37553 11.3283 8.37553Z" fill="#FAB908"/>
<path d="M11.3283 16.3755C12.1103 16.3755 12.7443 15.7599 12.7443 15.0005C12.7443 14.2411 12.1103 13.6255 11.3283 13.6255C10.5462 13.6255 9.91225 14.2411 9.91225 15.0005C9.91225 15.7599 10.5462 16.3755 11.3283 16.3755Z" fill="#FAB908"/>
</svg>
