<svg width="50" height="48" viewBox="0 0 50 48" fill="none" xmlns="http://www.w3.org/2000/svg">
<path d="M13.3926 11.7627C11.2797 9.81839 8.34506 11.0072 6.74994 13.0557C5.19671 15.0504 4.76773 19.4852 6.80172 21.3199C7.36748 21.8302 7.88788 22.4148 8.52519 22.8345C8.75254 22.9843 8.04884 23.1063 7.78954 23.1892C6.98695 23.4457 6.72731 24.3999 7.07718 25.1274C7.26071 25.509 7.63527 25.7306 8.04748 25.7553C8.33185 25.7724 8.40776 25.8593 8.0976 25.9424C7.37038 26.1373 6.85078 26.2629 6.44534 26.9652C5.84683 28.0018 6.31408 28.736 7.29813 29.1857C8.29288 29.6403 8.17077 29.9325 7.41876 30.5713C6.82285 31.0775 6.70699 31.9257 6.597 32.6891C6.40676 34.0096 6.15289 35.9945 7.43158 36.8194C9.03256 37.8522 11.1281 37.5595 12.8097 36.9538C13.3684 36.7525 14.0464 36.5913 14.4279 36.0977C14.5308 35.9644 14.7942 35.504 14.436 35.4868C13.7973 35.4562 13.7545 36.5977 13.7851 36.986C14.0021 39.7384 18.2137 40.001 20.1167 39.3426C21.3529 38.9149 22.3653 38.1194 23.2343 37.161C23.9183 36.4067 24.9111 35.5317 25.2862 34.556C25.4672 34.0851 25.4574 34.6015 25.669 34.969C26.1752 35.8483 27.1639 35.5022 27.8934 35.1463C28.8793 34.6654 29.6995 33.8477 30.1804 32.8579C30.2509 32.7128 30.5738 31.7771 30.6707 31.8815C31.8571 33.1584 32.0967 31.0495 32.8309 30.429C32.9537 30.3252 33.3604 31.2098 33.4638 31.3479C34.245 32.3922 35.0328 33.3164 36.4284 33.4323C39.4156 33.6803 42.2217 31.9737 43.8687 29.584C44.5623 28.5775 44.8269 27.2997 43.6106 26.5094C43.3163 26.3183 44.1681 26.456 44.3171 26.4204C45.137 26.2243 46.3216 25.9234 46.8197 25.1769C47.3874 24.3262 47.6512 23.6109 47.2097 22.6234C46.9008 21.9326 46.4125 21.5722 45.6826 21.4142C45.3614 21.3446 44.7507 21.4219 45.1466 21.0708C45.5439 20.7185 45.6343 19.9795 45.5929 19.4761C45.5277 18.6815 44.901 18.2357 44.1601 18.0841C43.8261 18.0157 42.8797 18.2983 43.0389 18.2556C43.5682 18.1138 43.5191 15.9588 43.413 15.5631C42.9417 13.8042 40.9203 12.7044 39.1202 13.1185C38.822 13.1871 38.5426 13.4165 38.72 13.0682C38.9237 12.6683 38.8323 12.026 38.8698 11.5959C39.081 9.1734 37.8027 7.36527 35.7417 6.17531C34.0453 5.19591 31.631 4.89967 29.9692 6.0392C29.8619 6.11281 29.2498 7.11278 29.4745 7.05256C29.8174 6.96068 29.569 6.14291 29.4915 5.9667C29.1282 5.14097 27.9955 4.59257 27.1922 4.33423C26.0087 3.9536 24.4604 4.40497 23.3646 4.90869C22.399 5.3526 21.7449 6.13594 21.368 7.10503C21.1683 7.61857 21.4666 7.9715 21.0729 7.71403C20.4344 7.29652 20.1759 6.99679 19.3194 7.20997C18.3101 7.46117 17.4207 7.88144 16.7128 8.65315C16.3504 9.04828 16.0943 9.81908 16.2381 10.3558C16.2403 10.364 16.0392 9.85767 15.9245 9.66641C15.3067 8.63601 13.8499 8.91286 13.2005 9.81626C12.9269 10.1968 12.8214 10.725 12.8595 11.1895C12.8795 11.4324 12.87 12.2174 12.6946 11.563" stroke="#81ADC8" stroke-width="1.5" stroke-linecap="round" stroke-linejoin="round"/>
<path d="M33.6131 40.466C32.7655 40.0059 32.2943 40.1435 31.6719 40.8896C31.0905 41.5865 31.0242 42.7482 31.712 43.4004C32.779 44.4121 34.8167 43.8017 35.3466 42.527C35.6037 41.9085 35.5602 42.3699 35.8014 42.5182C36.4015 42.8875 36.6851 42.8841 37.1641 42.2963C37.7401 41.5895 37.9492 39.012 36.3737 39.5522C36.1985 39.6122 35.6725 40.0869 35.9373 39.9961C36.2876 39.876 36.2228 39.4339 36.0975 39.1662C35.7631 38.4521 34.6742 38.2234 34.0538 38.585C33.5903 38.8551 33.5434 39.4731 33.1785 39.7517C32.8258 40.021 31.4812 41.5046 32.6334 41.2139" stroke="#81ADC8" stroke-width="1.5" stroke-linecap="round" stroke-linejoin="round"/>
<path d="M40.4798 44.7445C39.8766 44.6268 39.1659 44.4509 39.0134 45.2702C38.9001 45.8794 39.5227 46.6449 40.1686 46.5429C40.3937 46.5073 41.1356 46.1611 41.2822 46.3077C41.6505 46.676 41.8726 46.2513 42.0984 45.8927C42.3621 45.4739 41.9629 44.1264 41.4136 44.0044C41.0646 43.9268 39.6882 44.9089 39.8573 44.9935" stroke="#81ADC8" stroke-width="1.5" stroke-linecap="round" stroke-linejoin="round"/>
<path d="M21.4176 17.3477C19.2322 13.5626 6.22061 24.7759 27.2452 27.4413" stroke="#CD4631" stroke-width="0.75" stroke-linecap="round"/>
<path d="M27.2452 27.4414C35.449 7.90084 19.2323 13.5626 21.4176 17.3477L24.0201 18.045L23.3227 20.6475L25.3718 21.1966L24.8228 23.2456L25.8473 23.5201L25.5728 24.5447L27.2452 27.4414ZM27.2452 27.4414C27.2452 27.4414 27.2452 27.4414 27.2452 27.4414Z" stroke="#CD4631" stroke-width="0.75" stroke-linecap="round" stroke-linejoin="round"/>
<path d="M17.3521 20.531C17.4981 20.1873 17.781 19.9336 17.9593 19.6093C18.1733 19.2203 18.4992 18.9364 18.7815 18.6071C18.8596 18.5159 19.3026 18.0279 19.1362 18.4082C18.8688 19.0196 18.5817 19.6215 18.3221 20.2381C18.1851 20.5634 18.0648 20.9361 17.8357 21.2081C17.6916 21.3792 17.9298 20.997 17.9539 20.9662C18.2363 20.6055 18.6619 20.252 19.0234 19.9721C19.4132 19.6701 19.7599 19.2899 20.0391 18.8838C20.0771 18.8285 20.3188 18.5278 20.168 18.7575C19.7888 19.3354 19.399 19.9162 19.0717 20.5256C18.9166 20.8144 18.7386 21.0951 18.5505 21.3639C18.4538 21.502 18.3687 21.7316 18.2226 21.8261C18.2123 21.8328 18.0624 22.0007 18.1125 21.9228C18.3606 21.5369 18.8586 21.2254 19.1926 20.9152C19.6023 20.5348 20.0651 20.1782 20.4099 19.7356C20.6342 19.4476 20.8734 19.1724 21.1246 18.908C21.4861 18.5275 20.6049 19.82 20.34 20.273C20.0187 20.8224 19.698 21.3702 19.3834 21.9228C19.2331 22.1868 19.0468 22.4286 18.8998 22.6859C18.8295 22.8089 18.8141 22.8611 18.9374 22.7182C19.3547 22.234 19.7302 21.7179 20.1519 21.2376C20.3595 21.0012 20.5684 20.7656 20.8129 20.5686C20.8912 20.5055 21.105 20.2584 20.958 20.5524C20.6028 21.2628 20.1157 21.9584 19.6736 22.6214C19.5717 22.7744 19.5607 22.8322 19.6844 22.6241C19.8732 22.3065 20.1872 21.9816 20.469 21.7401C20.7253 21.5204 20.9684 21.2935 21.1891 21.0361C21.5423 20.6241 21.2226 21.1486 21.1085 21.3532C20.7307 22.0305 20.3574 22.7003 20.0686 23.4222C20.057 23.4513 19.8314 24.0624 19.8751 24.0697C19.9473 24.0818 20.1704 23.7115 20.2056 23.664C20.3869 23.4198 20.5839 23.1953 20.7887 22.9707C21.101 22.6284 21.4821 22.2135 21.6781 21.7858C21.757 21.6138 21.8072 21.4276 21.8877 21.2564C21.9736 21.0739 21.7877 21.6483 21.7157 21.8368C21.544 22.287 21.4559 22.7527 21.3396 23.218C21.2804 23.4546 21.2227 23.5225 21.3288 23.2394C21.4728 22.8554 21.653 22.4847 21.8205 22.1109C21.9859 21.7421 21.9009 22.0945 21.842 22.3044C21.8185 22.3884 21.4267 23.3784 21.4659 23.398C21.4686 23.3994 21.5636 23.1831 21.5706 23.1696C21.6208 23.0731 21.7029 22.9991 21.7507 22.9036C21.9565 22.4919 21.4696 24.7226 21.5599 24.2713C21.6226 23.9578 21.894 23.7161 22.0436 23.4544C22.1142 23.3308 22.0919 23.3641 22.0919 23.5028C22.0919 23.7866 22.0543 24.0611 22.0436 24.3411C22.0362 24.5328 22.2499 24.0167 22.3714 23.8682C22.4575 23.763 22.5602 23.5603 22.6831 23.492C22.7328 23.4644 22.661 24.1483 22.6508 24.2068C22.6382 24.279 22.6163 24.7788 22.6562 24.728C22.7523 24.6057 22.8694 24.4924 22.9625 24.3761C23.0226 24.301 23.0109 24.6712 23.0109 24.7119C23.0109 25.1315 23.3413 24.3855 23.3494 24.728C23.3505 24.773 23.3332 25.165 23.3978 25.1042C23.4846 25.0226 23.5613 24.9139 23.6396 24.8355" stroke="#CD4631" stroke-width="0.5" stroke-linecap="round"/>
<path d="M23.6396 16.1784C24.1034 15.7146 24.5664 15.257 25.0208 14.8026C25.181 14.6423 25.1578 14.7947 25.1148 14.9665C25.0621 15.1775 25.0033 15.3546 24.9213 15.555C24.7474 15.9801 24.7385 16.4845 24.4887 16.877C24.1308 17.4395 25.2886 15.8099 25.6979 15.2836C26.0476 14.834 25.2115 16.3237 25.0879 16.8797C25.0867 16.8853 25.3412 16.5169 25.4131 16.4256C25.6867 16.0778 25.9784 15.7312 26.2917 15.4179C26.3202 15.3895 26.5742 15.1215 26.5685 15.2272C26.5459 15.6403 26.2501 16.0652 26.058 16.4175C25.8616 16.7775 25.7009 17.155 25.4991 17.5111C25.4186 17.6531 25.3166 17.8252 25.2868 17.9894C25.2594 18.1401 25.4872 17.7556 25.4937 17.7476C25.8308 17.3286 26.2043 16.9403 26.555 16.533C26.9439 16.0815 26.6359 16.6501 26.5309 16.8555C26.3506 17.2081 26.1861 17.5666 26.0096 17.9195C25.8607 18.2173 25.6995 18.5188 25.5259 18.8009C25.4073 18.9936 25.3797 19.3017 25.225 19.4565C24.9329 19.7485 25.7836 18.8403 26.1171 18.5967C26.4743 18.3356 26.7408 17.8702 26.9285 17.4842C27.0657 17.2023 27.2444 16.9774 27.4015 16.7104C27.4308 16.6605 27.5317 16.532 27.5251 16.5492C27.3909 16.898 27.1265 17.1863 27.0253 17.5541C26.8573 18.1642 26.5217 18.7766 26.2514 19.349C26.0592 19.756 26.5116 19.1686 26.6088 19.0642C26.8297 18.8269 27.0613 18.6114 27.2644 18.3575C27.3589 18.2394 27.472 18.1187 27.5546 17.9948C27.8042 17.6203 27.0042 18.7072 26.7136 19.0508C26.52 19.2796 26.4179 19.5883 26.2299 19.83C26.1473 19.9362 26.1143 20.0722 25.9881 20.1444C25.9445 20.1693 26.2015 20.0314 26.2514 19.9885C26.4849 19.7879 26.7162 19.5829 26.9339 19.3651C27.1277 19.1714 27.3685 18.8095 27.6298 18.6934C27.8084 18.614 27.8795 18.5184 27.6755 18.7713C27.4685 19.0281 27.3504 19.2971 27.216 19.5882C27.105 19.8288 26.8888 20.0281 26.7834 20.2653C26.7583 20.3219 26.6339 20.5685 26.6679 20.5232C26.9329 20.1699 27.218 19.8549 27.5304 19.5425C27.7751 19.2978 27.3638 20.1928 27.3182 20.2841C27.2132 20.494 27.0989 20.7096 26.9554 20.894C26.779 21.1208 26.6279 21.3958 26.504 21.6437C26.4468 21.7581 26.3859 21.8427 26.2998 21.9339C26.0518 22.1965 26.5062 21.7969 26.5792 21.7404C26.9121 21.4832 27.3192 21.2745 27.6164 20.9773C27.8658 20.728 27.2387 21.5739 27.0736 21.8855C26.931 22.155 26.7226 22.3548 26.5147 22.5627C26.3366 22.7409 26.9207 22.3741 26.9877 22.3208C27.008 22.3047 27.212 22.1166 27.2402 22.1408C27.3496 22.2345 27.2205 22.5459 27.1919 22.6487C27.1648 22.7456 27.122 22.8666 27.122 22.9684C27.122 23.0363 27.2074 22.8623 27.2564 22.8152C27.4414 22.6373 27.1704 23.3867 27.1704 23.4816C27.1704 23.5877 27.0413 24.003 27.0629 23.9653C27.0811 23.9335 27.0253 24.2742 27.0253 24.3522" stroke="#CD4631" stroke-width="0.5" stroke-linecap="round"/>
</svg>
