<svg width="14" height="25" viewBox="0 0 14 25" fill="none" xmlns="http://www.w3.org/2000/svg">
<path d="M6.07592 9.76297C6.18695 9.76297 6.29764 9.7606 6.40788 9.75589C7.68903 8.89676 9.3993 8.38912 10.0622 6.68443C10.2414 6.22363 10.5676 5.29511 10.3845 4.66361C10.3185 4.43587 10.1862 4.24675 9.95699 4.13213C9.23043 3.76885 7.42389 3.32357 6.7732 3.97426C5.55704 5.19041 4.35033 6.19819 2.61585 6.63181C0.992708 7.03759 0.652864 5.18189 1.32654 4.07951C2.45204 2.23778 3.47244 0.959818 5.69439 1.00097C7.38934 1.03235 10.4923 1.09755 11.6015 2.55339C12.9141 4.27623 12.6712 6.64193 11.4305 8.34211C10.838 9.15407 9.91284 9.67741 8.97343 10.0863C8.82206 10.1944 8.67469 10.2857 8.53612 10.355C8.16509 10.5405 7.5982 10.6695 7.14206 10.9087C6.36349 11.5487 6.64163 12.6052 6.64163 13.7888C6.64163 14.3766 6.61777 15.1278 6.52408 15.8936C6.49246 16.4039 6.41448 16.8865 6.25778 17.3016C6.08064 17.9515 5.82485 18.5394 5.45758 18.9591C5.15876 19.3006 4.95104 18.9949 4.81087 18.5417C4.25715 18.4109 4.51033 17.0804 4.51033 16.6173C4.51033 15.1688 4.45552 13.7369 4.76106 12.3362C4.80347 11.2711 5.00435 9.76297 6.07592 9.76297Z" fill="#CD4631"/>
<path d="M3.08947 4.31632C2.7418 2.32965 4.93746 2.11009 6.51007 1.7114C7.75838 1.39493 8.94739 1.13169 10.1412 1.81665C10.9179 2.26232 12.01 3.40442 12.0751 4.31632C12.3175 7.70934 9.3439 9.76297 6.07592 9.76297C4.70726 9.76297 4.75902 12.2233 4.74715 13.0783C4.72796 14.4594 4.40277 15.7948 4.56296 17.1831C4.60703 17.565 4.83388 19.6719 5.45758 18.9591C6.49069 17.7784 6.64163 15.2672 6.64163 13.7888C6.64163 12.381 6.24814 11.153 7.70728 10.5918C8.9981 10.0953 10.5673 9.52504 11.4305 8.34211C12.6712 6.64193 12.9141 4.27623 11.6015 2.55339C10.4923 1.09755 7.38934 1.03235 5.69439 1.00097C3.47244 0.959818 2.45204 2.23778 1.32654 4.07951C0.652864 5.18189 0.992708 7.03759 2.61585 6.63181C4.35033 6.19819 5.55704 5.19041 6.7732 3.97426C7.42389 3.32357 9.23043 3.76885 9.95699 4.13213C10.8219 4.56459 10.3061 6.05744 10.0622 6.68443C9.08671 9.19294 5.84325 9.10935 5.03658 11.368C4.42718 13.0743 4.51033 14.8332 4.51033 16.6173C4.51033 17.1683 4.15189 18.9474 5.22077 18.4724C7.25892 17.5665 6.30368 13.7148 6.40482 11.8943C6.46278 10.8511 7.84208 10.702 8.53612 10.355C9.3758 9.93516 10.5388 8.70469 10.9569 7.86849C11.5242 6.73371 11.628 5.00363 10.7858 3.97426C9.73609 2.69125 7.95265 3.47709 6.87844 2.65864C5.94542 1.94776 3.98461 4.36842 3.32628 5.02675C3.06745 5.28558 2.77808 5.51268 2.49744 5.73719C2.37003 5.83912 1.99844 6.57918 1.90541 6.57918C1.61333 6.57918 2.24897 6.0944 2.48428 5.92137C3.27766 5.33801 4.02234 4.6722 4.60243 3.86901C5.24835 2.97466 6.29492 3.36908 7.35207 3.36908C7.95931 3.36908 9.33088 3.10576 9.83858 3.50064C10.608 4.09904 10.8882 4.63742 9.72018 5.02675" stroke="#CD4631" stroke-width="1.42087" stroke-linecap="round" stroke-linejoin="round"/>
<path d="M6.32293 23.8553C6.34339 23.8438 6.36311 23.8315 6.38204 23.8185C6.24578 23.7099 5.78744 23.4478 5.70752 23.2613C5.39692 22.5366 6.37113 22.2911 6.58898 22.9719C6.72312 23.3911 6.61133 23.6609 6.38204 23.8185C6.44071 23.8653 6.43966 23.8837 6.32293 23.8553Z" fill="#CD4631"/>
<path d="M5.69436 22.7877C2.24083 23.5647 7.2309 24.9779 6.58898 22.9719C6.37113 22.2911 5.39692 22.5366 5.70752 23.2613C5.84432 23.5805 7.08973 24.1211 5.93117 23.7349" stroke="#CD4631" stroke-width="1.42087" stroke-linecap="round" stroke-linejoin="round"/>
</svg>
