<svg width="49" height="64" viewBox="0 0 49 64" fill="none" xmlns="http://www.w3.org/2000/svg">
<path d="M39.1792 15.8174C38.8406 19.1622 38.5969 21.9518 38.2583 24.7278C38.0688 26.2445 37.4458 27.5581 35.7396 27.9237C34.3177 28.2216 32.8417 27.4362 31.9885 25.6893C31.1625 24.0101 30.5667 22.2091 29.9438 20.4351C28.1427 15.3435 25.3667 10.8206 21.9271 6.69035C20.8573 5.40389 19.801 4.11743 18.5688 2.62785C18.2979 3.53514 18.0813 4.26639 17.8646 4.99764C15.5625 12.9466 14.7771 21.0445 15.1292 29.2914C15.2375 31.9591 14.926 34.681 14.5469 37.3351C14.3031 39.0414 13.6667 40.7747 11.6083 41.1539C10.1323 41.4247 8.66979 40.206 7.77604 37.9851C7.18021 36.4956 6.7875 34.9112 6.24583 33.3945C5.94792 32.5414 5.51458 31.7424 5.12188 30.8487C0.152084 36.8883 3.94375 56.8081 10.5656 59.7195C10.5927 54.3841 13.0438 49.9695 15.9417 45.7987C20.0448 39.8945 22.2792 33.3674 23.024 26.2716C23.0781 25.7435 23.1865 25.2018 23.2812 24.6872C23.7417 22.2768 24.7302 21.8841 26.5312 23.6716C27.6958 24.8226 28.725 26.2445 29.4021 27.7206C32.7604 34.9518 34.1552 42.4539 31.8802 50.3351C31.6229 51.2018 31.0406 52.4206 31.474 53.0435C32.2323 53.9914 33.424 52.3664 33.6813 51.7028C34.3583 49.956 34.7781 48.1278 35.3198 46.3268C35.6583 45.2029 35.8615 43.9706 36.4708 42.9956C36.9448 42.2372 37.974 41.3029 38.6781 41.3706C39.4094 41.4383 40.425 42.481 40.6688 43.2935C42.4563 49.3466 41.6167 54.8851 36.0375 59.5841C33.1667 62.0081 29.6323 62.7935 26.0167 63.2674C21.9406 63.7956 17.9188 63.9581 13.8292 63.0237C11.8792 62.5768 9.84792 62.2789 8.66979 61.8456C7.49167 61.4122 6.48958 60.532 6.01563 59.8008C-0.0104165 50.4976 -0.998957 40.6935 3.23958 30.4153C4.11979 28.2893 5.8125 27.8424 7.30209 29.6029C8.39896 30.9029 9.02188 32.6497 9.7125 34.2747C10.1865 35.4122 10.4438 36.6445 10.7688 37.8362C11.175 39.3258 11.7708 39.556 12.1771 39.2987C12.6781 39.1497 12.976 37.3487 12.9219 35.5476C12.8271 32.582 12.8813 29.6028 12.5698 26.6643C11.6625 18.0518 13.7615 9.98098 16.8219 2.07264C17.5802 0.0955591 18.4469 -0.148191 20.0719 1.23306C26.7344 6.87993 31.5417 13.7591 33.7219 22.3174C34.0604 23.6174 34.1688 25.0799 35.8208 26.1091C35.9833 24.8497 36.1188 23.807 36.2677 22.7778C36.6469 20.232 36.8906 17.6591 37.4594 15.1674C37.8115 13.6643 38.8542 13.3529 39.951 14.4362C41.3865 15.8581 42.7948 17.4289 43.7292 19.2029C47.2094 25.8383 48.401 33.0424 48.374 40.4633C48.3469 46.2997 47.2635 51.9601 44.5823 57.1737C43.675 58.9476 42.1448 60.4101 40.8448 61.9674C40.2625 62.6716 38.9354 62.4414 39.5448 60.8706C39.599 60.7351 39.6667 60.5726 39.7615 60.4372C44.799 53.6799 45.3 45.7716 45.3677 37.8091C45.4219 31.4581 44.501 25.2289 41.5354 19.4872C40.9125 18.3091 40.1135 17.2529 39.1792 15.8174ZM38.4479 43.5914C37.649 46.2456 37.026 48.4393 36.3083 50.6195C35.7396 52.3393 34.8729 53.8966 33.1667 54.7497C31.1896 55.7518 29.2667 54.6414 29.1583 52.4206C29.1177 51.5133 29.1583 50.5789 29.3344 49.6987C30.7156 42.6299 30.0656 35.7779 27.3031 29.1289C26.8292 27.9914 26.1385 26.9487 25.4479 25.7029C25.2042 26.1091 25.0281 27.5851 25.001 28.2216C24.825 33.0424 24.2833 37.8091 21.751 42.0612C20.2344 44.5935 18.5281 47.0174 16.876 49.482C15.0479 52.231 13.4229 55.0747 12.8271 58.3789C12.4208 60.6404 12.5969 60.7487 14.7635 61.3039C19.3542 62.4685 23.85 61.7237 28.3323 60.8299C33.4375 59.8143 36.6198 56.456 38.5156 51.8247C39.5583 49.2924 39.2604 46.6654 38.4479 43.5914Z" fill="#CD4631"/>
</svg>
