<svg width="11" height="18" viewBox="0 0 11 18" fill="none" xmlns="http://www.w3.org/2000/svg">
<path d="M3.28274 2.71545C4.58591 1.68113 6.18625 0.919239 7.76341 1.00686C8.84018 1.06668 9.36698 3.48765 9.71172 4.26332C10.1907 5.34096 9.53705 6.05148 8.63881 6.68404C8.40505 7.06751 8.18584 7.50867 8.01391 7.89552C7.92161 8.10319 7.78456 8.25895 7.62702 8.38838C7.89426 9.14376 8.5149 10.0636 8.5149 10.5257C8.5149 11.4907 8.36738 11.7805 7.40158 11.1659C7.06956 10.9546 6.60587 10.7914 6.28842 10.5139C6.17081 10.411 6.07327 10.2925 6.00993 10.15C5.30937 8.57373 6.99054 7.77667 8.35187 6.87903C8.60666 6.63268 8.8063 6.35262 8.95187 6.05508C8.87037 5.71522 8.53589 4.95318 8.5149 4.76431C8.36221 3.3901 6.47322 3.76232 5.50894 3.76232C4.13571 3.76232 3.60755 4.93659 2.86481 5.89155C2.24957 6.68257 1 7.11691 1 5.64105C1 4.02141 2.00109 3.16186 3.28274 2.71545Z" fill="#CD4631"/>
<path d="M1.50099 4.51381C2.87368 2.73441 5.34577 0.872546 7.76341 1.00686C8.84018 1.06668 9.36698 3.48765 9.71172 4.26332C10.9345 7.01446 4.77566 7.37287 6.00993 10.15C6.2442 10.6771 6.94655 10.8763 7.40158 11.1659C8.36738 11.7805 8.5149 11.4907 8.5149 10.5257C8.5149 9.77885 6.89381 7.83647 7.76341 7.32494C10.1232 5.93682 9.6147 2.25934 6.63618 2.25934C4.347 2.25934 1 2.67956 1 5.64105C1 7.11691 2.24957 6.68257 2.86481 5.89155C3.60755 4.93659 4.13571 3.76232 5.50894 3.76232C6.47322 3.76232 8.36221 3.3901 8.5149 4.76431C8.5408 4.99742 9.04424 6.10361 8.96023 6.21162C8.61191 6.65947 8.26321 7.3346 8.01391 7.89552C7.59597 8.83589 6.26043 8.71175 6.26043 9.89949C6.26043 10.6928 6.3033 10.8298 6.76143 11.4025C6.91298 11.5919 7.79799 12.0979 7.51292 11.5277" stroke="#CD4631" stroke-width="1.50298" stroke-linecap="round" stroke-linejoin="round"/>
<path d="M9.26638 15.0347C9.31848 17.1184 10.3388 15.8425 9.57254 15.2295C9.06516 14.8236 8.92332 15.9347 9.51688 16.2315C10.1837 16.5649 10.0296 14.8838 9.82304 15.0903C9.28577 15.6276 10.4263 17.0781 9.26638 16.7881" stroke="#CD4631" stroke-width="1.50298" stroke-linecap="round" stroke-linejoin="round"/>
</svg>
