<svg width="37" height="34" viewBox="0 0 37 34" fill="none" xmlns="http://www.w3.org/2000/svg">
<path d="M5 18C6.33333 19.5 8.2 22.5 5 22.5" stroke="#F7EDE8" stroke-width="2.5" stroke-linecap="round" stroke-linejoin="round"/>
<path d="M14 32C11.7361 29.3333 8.56671 24 14 24" stroke="#F7EDE8" stroke-width="2.5" stroke-linecap="round" stroke-linejoin="round"/>
<path d="M2 26.8711C4.25366 27.0552 8.1401 28.0443 5.65665 30.5277" stroke="#F7EDE8" stroke-width="2.5" stroke-linecap="round" stroke-linejoin="round"/>
<path d="M17.5039 16.5629C19.302 16.4834 22.2787 15.6555 25.7651 18.1307C29.1704 20.5483 18.7524 17.4758 17.8432 13.9676C16.7805 9.86666 34.331 16.2391 30.904 16.7592C28.9867 17.0502 18.3611 11.5202 19.9126 9.76392C21.8862 7.52973 34.5798 12.5981 34.4828 13.917C34.3115 16.2435 19.566 8.60144 20.5925 6.20267C21.8164 3.34228 31.8382 7.52469 32.5265 9.64059C33.0771 11.3333 23.2123 5.36531 25.0134 1.0002" stroke="#81ADC8" stroke-linecap="round"/>
</svg>
