<svg width="57" height="36" viewBox="0 0 57 36" fill="none" xmlns="http://www.w3.org/2000/svg">
<path d="M3.04153 23.674C2.58112 23.1052 1.40299 24.6625 0.549867 23.9177C-0.303258 23.1865 0.874868 22.1708 1.36237 21.5344C2.20195 20.424 3.21758 19.4219 4.30091 18.5688C4.7207 18.2302 5.6957 17.7292 6.1832 18.3521C6.49466 18.7448 6.57591 19.0969 6.07487 20.0448C5.80403 20.5458 5.66862 20.8167 4.95091 21.6833C4.95091 21.9542 5.35716 22.2521 5.66862 22.5229C12.1822 28.1969 19.5353 32.0427 28.3238 32.4625C37.1124 32.8958 44.6686 30.174 50.4103 23.2406C50.9249 22.6313 51.629 22.0625 51.7238 21.3583C51.7915 20.8302 51.5613 20.5594 50.8436 19.5573C50.6134 19.2458 50.5051 18.4875 50.9249 18.0136C51.6155 17.2011 52.3603 17.6209 52.6176 17.8646C54.3644 19.5708 55.7186 21.575 56.7072 23.3761C56.8967 23.9719 56.5853 24.4594 56.2738 24.7573C56.0165 25.0011 55.3394 24.974 54.9332 24.825C54.4592 24.649 54.0665 24.2292 53.4436 23.7688C47.1603 32.0021 38.6697 35.9292 28.378 35.55C18.2488 35.2115 9.37903 30.8917 3.04153 23.674Z" fill="black"/>
<path d="M39.8478 8.7916C39.8072 5.23014 42.3259 2.35931 45.4676 2.37285C48.203 2.38639 50.6405 5.17598 50.6676 8.33118C50.6811 11.3239 48.027 14.0999 45.0884 14.1406C42.1228 14.1676 39.8749 11.8791 39.8478 8.7916ZM42.4613 8.41243C42.4884 10.1187 43.653 11.351 45.2374 11.3239C46.6186 11.2968 47.9457 9.94264 47.878 8.58848C47.8103 6.92285 46.9301 5.20306 44.7905 5.44681C43.5718 5.58223 42.4343 6.43535 42.4613 8.41243Z" fill="#CD4631"/>
<path d="M15.7302 6.05619C15.7031 9.22494 13.1167 11.9062 10.0562 11.9197C7.14478 11.9333 4.82916 9.36035 4.96457 6.04264C5.11353 1.9666 7.37499 0.70723 10.6927 0.409314C13.2927 0.179105 15.7437 3.13119 15.7302 6.05619ZM7.51041 5.77181C7.49687 7.77598 8.5802 9.27911 10.0292 9.29265C11.6406 9.30619 13.1437 7.73535 13.1437 6.01556C13.1437 4.43119 11.7083 2.91452 10.2458 2.95515C8.39062 3.00931 7.51041 3.91661 7.51041 5.77181Z" fill="#81ADC8"/>
</svg>
