<svg width="23" height="22" viewBox="0 0 23 22" fill="none" xmlns="http://www.w3.org/2000/svg">
<path d="M11.2735 0C9.14271 0 7.05975 0.645131 5.28804 1.8538C3.5164 3.06253 2.13553 4.78051 1.32006 6.79046C0.504657 8.80048 0.29131 11.0122 0.707036 13.146C1.1227 15.2798 2.14876 17.2398 3.65548 18.7782C5.16219 20.3165 7.08188 21.3642 9.17173 21.7886C11.2616 22.2131 13.4278 21.9953 15.3963 21.1627C17.365 20.3301 19.0476 18.9202 20.2314 17.1113C21.4152 15.3023 22.047 13.1756 22.047 11C22.047 8.0826 20.912 5.28473 18.8916 3.22185C16.8711 1.1589 14.1309 0 11.2735 0ZM16.2174 15.8635C16.1716 15.9413 16.1111 16.0089 16.0394 16.0626C15.9677 16.1162 15.8863 16.1547 15.7999 16.176C15.7135 16.1972 15.6238 16.2007 15.5361 16.1862C15.4484 16.1718 15.3643 16.1397 15.2888 16.0918C12.761 14.5116 9.57968 14.1604 5.83088 15.0295C5.74558 15.0503 5.65714 15.0536 5.57059 15.0392C5.4841 15.0248 5.40118 14.9929 5.32684 14.9456C5.25245 14.8982 5.18801 14.8363 5.13725 14.7633C5.08648 14.6903 5.0505 14.6077 5.03126 14.5204C5.01077 14.4328 5.00751 14.3419 5.02148 14.2529C5.03552 14.164 5.06655 14.0788 5.11287 14.0021C5.15918 13.9254 5.21992 13.8589 5.29143 13.8062C5.363 13.7535 5.44404 13.7158 5.52991 13.6951C9.63126 12.7382 13.1565 13.1508 15.9939 14.9242C16.1453 15.0187 16.2539 15.1706 16.2957 15.3467C16.3377 15.5228 16.3095 15.7086 16.2174 15.8635ZM17.533 12.8699C17.4129 13.0586 17.2263 13.193 17.0119 13.2453C16.7974 13.2975 16.5716 13.2637 16.3808 13.1508C13.1116 11.2888 9.2522 10.8279 5.65031 11.8691C5.53825 11.9329 5.41358 11.9703 5.28554 11.9785C5.15743 11.9867 5.02919 11.9655 4.91017 11.9165C4.79115 11.8675 4.68442 11.792 4.59774 11.6954C4.51106 11.5988 4.44663 11.4836 4.40921 11.3583C4.37179 11.2329 4.36233 11.1007 4.38151 10.9711C4.40068 10.8415 4.448 10.7181 4.52002 10.6096C4.59203 10.5012 4.68693 10.4106 4.79767 10.3444C4.90848 10.2783 5.03233 10.2383 5.16019 10.2275C7.17063 9.63655 9.27645 9.46181 11.354 9.71363C13.4315 9.96538 15.4388 10.6385 17.2579 11.6936C17.4427 11.8162 17.5742 12.0067 17.6254 12.2256C17.6767 12.4446 17.6436 12.6752 17.533 12.8699ZM17.6448 9.75339C14.2055 7.64642 8.45334 7.45328 5.13443 8.48043C4.87903 8.55964 4.60325 8.53194 4.36784 8.40349C4.13244 8.27509 3.95663 8.05645 3.8791 7.79567C3.80157 7.53494 3.82865 7.25337 3.95444 7.01298C4.08016 6.77265 4.29433 6.59313 4.54973 6.51399C8.35876 5.3376 14.6784 5.56585 18.6766 7.98003C18.8821 8.13024 19.0247 8.35391 19.0761 8.60663C19.1275 8.85929 19.0838 9.12246 18.9537 9.34381C18.8237 9.5651 18.6168 9.72828 18.3743 9.8009C18.1317 9.87359 17.8713 9.85035 17.6448 9.73584V9.75339Z" fill="#1ED760"/>
</svg>
