<svg width="79" height="78" viewBox="0 0 79 78" fill="none" xmlns="http://www.w3.org/2000/svg">
<path d="M20.6094 35.9262C18.8625 37.5106 17.1698 38.8919 15.5448 40.5981C13.1615 43.0898 10.9407 45.7304 8.65213 48.3033C8.0563 48.9669 7.58234 49.9419 6.44484 49.4273C5.70005 49.0887 5.70005 48.2356 6.41776 46.8273C6.83755 46.0148 7.31151 45.2294 7.86671 44.4981C11.0084 40.3408 14.7188 36.7523 18.998 33.7731C19.7292 33.2721 20.5282 32.8117 21.3678 32.5273C22.9657 31.9992 24.198 32.92 24.049 34.5992C23.9542 35.6825 23.575 36.7658 23.25 37.8221C22.6271 39.8262 21.9094 41.7898 21.3136 43.8075C21.1511 44.3627 20.948 45.3242 21.2865 45.744C21.8688 46.3669 23.6021 44.5794 24.374 43.7533C26.7438 41.2481 29.0323 38.6617 31.375 36.1294C33.7178 33.5835 36.3042 31.295 39.324 29.5752C40.2042 29.0742 41.1521 28.6408 42.1271 28.3835C43.698 27.9637 44.9438 29.0065 44.8355 30.645C44.7813 31.4304 44.5511 32.2429 44.2125 32.9606C43.3459 34.7617 42.3573 36.495 41.45 38.269C40.5021 40.1242 39.5136 41.9794 39.1615 44.4981C39.825 43.9023 40.2584 43.5637 40.624 43.1575C43.0073 40.5846 45.3365 37.971 47.7469 35.4252C49.9407 33.1096 52.2834 30.9429 55.1136 29.4262C56.1834 28.8575 57.3886 28.4106 58.5803 28.2481C60.2323 28.0315 61.3698 29.2908 61.0448 30.9294C60.8011 32.1346 60.2865 33.2992 59.7719 34.4096C58.7834 36.5085 57.7001 38.5533 56.6844 40.6252C56.4542 41.0856 55.7501 42.169 56.3865 42.2773C57.0636 41.5596 57.7407 40.8283 58.4313 40.1242C60.2594 38.2148 62.0469 36.2783 63.9292 34.4231C65.6219 32.744 67.5042 31.295 69.9146 30.7533C71.9459 30.2929 73.3813 31.5523 73.0563 33.6106C72.8938 34.5992 72.5688 35.6148 72.1084 36.5085C70.1042 40.4492 68.0323 44.3492 65.974 48.2627C65.7438 48.6825 65.4865 49.1294 65.1209 49.4273C64.7823 49.6981 64.2136 50.0096 63.8886 49.8877C63.5636 49.7658 62.9678 49.3325 63.0355 48.4794C63.1032 47.694 63.3334 47.1117 63.6448 46.4075C65.0803 43.1575 66.5969 39.9481 68.0865 36.7252C68.4928 35.8585 68.9261 35.0054 69.3459 34.1387C69.4948 33.8815 69.4542 33.8408 69.373 33.746C68.9803 33.5429 67.8969 34.369 67.4501 34.8023C64.8907 37.2669 62.3719 39.7585 59.8667 42.2637C58.8782 43.2523 57.9709 44.3356 56.9823 45.3242C56.1698 46.1367 55.1678 46.5971 54.0438 46.0554C52.9198 45.5137 52.6084 44.3762 52.798 43.2929C53.0688 41.7085 53.4073 40.0971 54.0573 38.6481C55.0323 36.4408 56.3053 34.3554 57.4428 32.2158C57.6323 31.8502 57.7948 31.4575 58.1063 30.7533C57.4021 31.0512 56.9688 31.1731 56.5761 31.3898C54.0032 32.8252 51.823 34.7617 49.8594 36.9148C47.5032 39.5012 45.2959 42.2231 42.9667 44.8502C42.0459 45.8929 41.098 46.9627 40.0011 47.8023C37.875 49.4544 35.749 48.5742 35.4782 45.9065C35.3563 44.6471 35.5459 43.32 35.8438 42.0877C36.5886 38.9596 38.2813 36.2377 39.8792 33.4887C40.2178 32.9065 40.5563 32.3242 40.773 31.6606C38.1594 32.6221 36.0469 34.2742 34.1375 36.1429C31.1719 39.0408 28.3688 42.1148 25.4709 45.0669C24.7261 45.8252 23.9 46.5565 22.9928 47.1117C21.449 48.046 19.7698 47.3283 19.3907 45.5679C19.1063 44.2815 19.0928 42.8596 19.2959 41.5596C19.5803 39.6502 20.8261 36.1429 20.7719 35.9262C20.7719 35.7231 20.6094 35.9262 20.6094 35.9262Z" fill="#81ADC8"/>
</svg>
