<svg width="284" height="340" viewBox="0 0 284 340" fill="none" xmlns="http://www.w3.org/2000/svg">
<path d="M132.023 228.897C133.555 223.299 134.734 218.526 136.177 213.841C138.593 205.886 141.333 198.138 146.961 191.685C152.677 185.145 159.807 182.67 167.968 185.056C172.976 186.529 177.573 189.358 182.257 191.744C184.084 192.687 185.675 194.16 188.179 195.957C187.236 191.479 186.441 187.973 185.793 184.437C184.172 175.805 182.198 167.231 181.167 158.54C179.694 146.637 185.704 139.507 197.725 138.446C202.439 138.034 207.301 138.77 212.103 139.035C213.547 139.124 214.961 139.418 216.67 139.654C212.25 132.583 207.949 125.924 203.942 119.148C194.602 103.326 205.12 93.692 217.789 92.0421C221.178 91.6002 224.743 91.9832 228.19 92.3073C230.488 92.6019 232.373 94.0751 232.02 96.6089C231.725 98.907 229.663 99.5551 227.483 99.6141C225.332 99.7024 223.152 99.6435 221.06 99.9676C218.614 100.351 216.139 100.763 213.812 101.618C207.271 104.033 205.327 108.099 208.096 114.522C210.041 119.059 212.663 123.332 215.197 127.574C217.554 131.522 220.117 135.382 222.68 139.242C223.976 141.245 225.214 143.307 223.976 145.664C222.562 148.375 219.881 148.169 217.406 147.992C214.254 147.786 211.16 147.108 208.008 147.079C204.03 146.99 200.023 146.99 196.134 147.521C190.86 148.257 188.798 150.555 188.827 155.888C188.857 160.985 189.181 166.2 190.035 171.238C191.921 182.021 194.16 192.687 196.429 203.382C196.959 205.916 196.93 208.067 194.72 209.569C192.628 211.013 190.625 210.129 188.768 208.744C185.469 206.269 182.228 203.618 178.81 201.32C175.805 199.316 172.682 197.313 169.382 195.898C160.573 192.098 154.68 193.983 149.17 201.791C145.016 207.654 142.129 214.136 140.066 220.971C138.564 225.892 137.385 230.9 136.089 235.85C135.411 238.472 134.704 241.183 131.434 241.566C128.34 241.89 126.69 239.651 125.188 237.382C124.569 236.41 124.098 235.349 123.597 234.318C122.624 232.226 121.505 230.164 120.739 227.983C114.935 211.808 102.266 206.387 86.4442 206.181C83.5274 206.151 80.5811 207.035 77.6643 207.595C76.2206 207.86 74.8064 208.567 73.3627 208.656C72.3315 208.744 70.77 208.42 70.3575 207.713C69.8861 206.947 70.2397 205.415 70.5638 204.502C71.3003 202.528 73.3038 200.878 75.1305 200.112C78.7544 198.609 82.614 197.283 86.4737 196.9C95.0179 196.016 103.297 197.755 111.281 200.966C118.087 203.706 122.683 208.833 125.924 215.197C127.987 219.38 129.696 223.682 132.023 228.897Z" fill="black"/>
</svg>
