<svg width="79" height="78" viewBox="0 0 79 78" fill="none" xmlns="http://www.w3.org/2000/svg">
<path d="M70.1583 24.741C70.5781 25.2014 70.6323 25.8785 70.3073 26.4201C70.0094 26.9212 69.7521 27.3545 69.4542 27.7607C66.3667 32.0399 64.674 34.2743 61.6271 38.5805C60.8552 39.6639 58.9865 42.9816 58.2687 44.1191C58.2552 44.1326 58.2552 44.1462 58.2417 44.1597C57.5917 45.1347 55.9937 45.067 55.4792 43.9972C55.4792 43.9972 55.4792 43.9837 55.4656 43.9837C54.7073 42.318 54.0979 40.5982 53.3937 38.9055C51.4573 34.2337 48.7625 30.1847 44.2802 27.5305C42.6552 26.5691 42.6281 25.8649 43.8875 24.4701C44.3615 23.9555 44.8354 23.4274 45.35 22.967C50.3198 18.5389 53.7458 13.068 56.3052 6.97429C56.4677 6.59512 56.7927 6.2972 57.1448 5.99929C57.6052 5.62012 58.2687 5.67429 58.675 6.10762C59.0135 6.45971 59.325 6.83887 59.5146 7.25866C59.9344 8.23366 60.0427 9.33054 60.3 10.3732C61.6812 16.0472 64.7552 20.5701 69.4271 24.0503C69.6844 24.2399 69.9146 24.4837 70.1583 24.741ZM57.7135 11.1451C56.1021 13.8264 54.7479 16.5889 52.9062 18.9993C51.024 21.4503 48.6677 23.5357 46.5146 25.7972C51.9854 29.0743 55.1542 34.2607 57.0635 40.6253C59.8667 34.8295 63.7396 30.2253 67.9917 25.9191C61.275 20.8003 59.6771 18.4847 57.7135 11.1451Z" fill="black"/>
<path d="M19.0927 71.4733C17.8604 67.9795 16.7906 64.4181 15.4364 60.9785C14.1094 57.6472 12.1323 54.6816 9.28853 52.3931C8.24582 51.5535 8.2729 50.7951 9.12603 49.8472C13.9198 44.6337 17.6031 38.7295 20.2437 32.1618C20.5281 31.4576 21.2864 30.3337 21.8146 30.3337C23.25 29.9951 23.7646 32.7983 23.8187 33.0556C25.0239 39.6639 29.1135 44.4712 33.7042 48.967C35.1937 50.4295 35.3156 50.8764 33.8531 52.2847C28.3417 57.566 24.6854 64.066 21.5437 70.9045C20.5552 73.2879 19.2417 71.8931 19.0927 71.4733ZM10.9406 50.7816C13.8656 52.6368 15.8021 55.1149 17.2104 57.9181C18.5781 60.667 19.5802 63.5785 20.7177 66.3681C23.3448 60.491 26.8927 55.0608 32.2823 50.9306C27.0687 46.8274 22.9521 42.142 21.6927 35.4253C19.4312 41.4649 15.8427 46.4889 10.9406 50.7816Z" fill="#81ADC8"/>
<path d="M56.102 56.9025C53.1093 60.9244 51.2812 65.515 49.602 70.1869C49.4937 70.4848 49.1416 72.1775 47.8551 72.164C47.4895 72.164 46.8801 71.5817 46.6499 71.1213C45.6343 69.0494 44.9978 66.7338 43.7114 64.865C42.1947 62.6442 40.1093 60.8161 38.3489 58.7713C38.0916 58.4734 37.9968 57.7963 38.1593 57.4307C38.4708 56.7536 39.026 56.2119 39.4593 55.589C41.6666 52.339 43.8333 49.0619 46.1083 45.8661C46.5822 45.2025 47.5166 44.4036 48.0718 44.4036C49.453 44.39 49.7239 45.4734 49.9676 46.2452C51.078 49.7932 52.9874 52.7588 55.7635 55.2098C56.752 56.1307 56.2239 56.74 56.102 56.9025ZM40.8947 57.8369C44.1176 60.1254 46.3114 63.4296 47.6385 67.1265C49.602 63.5244 51.6062 59.8546 53.6645 56.0629C50.902 54.1536 48.9791 50.5921 48.0989 47.965C45.6885 51.2692 43.3051 54.5327 40.8947 57.8369Z" fill="#CD4631"/>
</svg>
