<svg width="88" height="88" viewBox="0 0 88 88" fill="none" xmlns="http://www.w3.org/2000/svg">
<g clip-path="url(#clip0_2_2519)">
<path d="M49.9224 66.4676C49.2375 64.0148 47.7467 60.0771 47.8846 58.2269C47.9432 57.4618 48.3958 57.2902 48.7401 57.2198C49.0651 57.1605 49.6608 57.5478 49.836 57.8957C50.246 58.6726 50.5213 59.5272 50.7415 60.3752C51.2377 62.2569 51.7092 64.1402 52.1021 66.0431C52.312 67.051 51.8228 67.6926 51.1257 67.4408C50.7185 67.291 50.3224 67.1604 49.9224 66.4676Z" fill="#CD4631"/>
<path d="M15.6112 41.3722C16.1767 41.174 16.5573 41.2109 17.1129 41.2622C19.261 41.4717 21.4081 41.7461 23.544 42.0012C23.6695 42.0185 23.8102 42.04 23.9275 42.0877C24.4769 42.2837 25.1118 42.4945 25.0447 43.2004C24.9679 43.9119 24.329 44.0498 23.7405 44.0303C21.2774 43.9641 18.8128 43.8731 16.3467 43.7573C15.9677 43.7452 15.5549 43.5858 15.2383 43.3709C14.4545 42.8355 14.5675 41.8978 15.6112 41.3722Z" fill="#CD4631"/>
<path d="M29.8309 65.2248C29.3979 65.4748 28.8955 65.3158 28.703 65.0933C28.4412 64.7954 28.3322 64.4734 28.3816 63.8034C28.393 63.5787 28.5973 63.3325 28.7438 63.1196C29.8586 61.5394 30.9582 59.9551 32.0937 58.3886C32.369 57.9987 32.702 57.5755 33.1132 57.3766C33.4859 57.1999 34.1237 57.1268 34.4155 57.3432C34.7017 57.5501 34.9568 57.9031 34.7794 58.5957C34.7198 58.8482 34.5489 59.1522 34.3695 59.3969C33.1625 61.0175 31.9555 62.6381 30.7279 64.245C30.4922 64.5479 30.1998 64.8193 29.8309 65.2248Z" fill="#CD4631"/>
<path d="M25.4576 27.0272C25.3271 26.5123 25.3721 26.1014 25.6219 25.8674C25.9376 25.5697 26.5339 25.4692 27.0025 25.4809C27.3568 25.4945 27.737 25.7753 28.0262 26.0317C29.4721 27.3139 30.9139 28.6112 32.3325 29.9349C32.5746 30.1543 32.8035 30.484 32.8669 30.7938C32.967 31.3006 32.7358 31.6778 32.1316 31.5648C31.7896 31.5056 31.4212 31.4232 31.1461 31.2356C29.5289 30.1678 27.935 29.0738 26.3452 27.9645C26.059 27.7577 25.5729 27.538 25.4576 27.0272Z" fill="#CD4631"/>
<path d="M60.7925 50.0946C60.7569 49.8329 60.9977 49.4501 61.2231 49.3071C61.5351 49.1141 61.9755 48.9881 62.3465 49.0306C64.0948 49.2144 65.8517 49.4574 67.5934 49.6963C67.854 49.7255 68.1039 49.825 68.3538 49.9245C68.9102 50.1549 69.5004 50.5326 69.2304 51.1761C69.0735 51.5489 68.4004 52.0274 68.0431 51.9642C65.8309 51.5992 63.6305 51.099 61.4356 50.6085C61.2494 50.5749 60.9251 50.4799 60.7925 50.0946Z" fill="#CD4631"/>
<path d="M45.0691 18.0394C45.2167 18.6727 45.3593 19.142 45.4428 19.6199C45.6901 21.0039 45.9278 22.3934 46.1504 23.7788C46.2086 24.1686 46.278 24.5776 46.2259 24.9541C46.1871 25.2202 45.9381 25.6334 45.7645 25.6438C45.4765 25.6562 45.0975 25.6441 44.8986 25.2329C44.8138 25.0637 44.7012 24.8465 44.6437 24.6359C44.2457 23.1465 43.8284 21.6682 43.4744 20.1661C43.3495 19.6609 43.2712 19.1031 43.3503 18.5956C43.4079 18.2287 43.7268 17.7367 44.0351 17.6485C44.3187 17.5618 44.7969 17.5679 45.0691 18.0394Z" fill="#CD4631"/>
<path d="M59.2196 33.3486C59.0986 33.4056 58.9775 33.4626 58.8495 33.4853C58.2835 33.5939 57.6932 33.7936 57.3579 33.1019C57.0005 32.3717 57.5612 32.0095 58.0382 31.7469C59.1904 31.1202 60.3869 30.5705 61.582 29.996C62.018 29.7956 62.4692 29.5992 62.9304 29.4869C63.4012 29.3691 63.9094 29.2937 64.1642 29.8907C64.3969 30.4492 64.1505 30.8224 63.6941 31.0987C63.1938 31.3876 60.2181 32.9003 59.2196 33.3486Z" fill="#CD4631"/>
</g>
<defs>
<clipPath id="clip0_2_2519">
<rect width="64" height="64" fill="white" transform="translate(55.4255) rotate(60)"/>
</clipPath>
</defs>
</svg>
