<svg width="145" height="172" viewBox="0 0 145 172" fill="none" xmlns="http://www.w3.org/2000/svg">
<path d="M103.802 111.592C98.9488 108.857 90.552 105.073 87.9035 101.998C86.8106 100.723 87.2455 99.7579 87.669 99.1165C88.0799 98.5221 89.6005 98.1998 90.4096 98.4669C92.2455 99.0343 93.9932 99.9304 95.6454 100.902C99.3237 103.045 102.966 105.228 106.517 107.564C108.401 108.798 108.637 110.547 107.169 111.236C106.307 111.634 105.493 112.045 103.802 111.592Z" fill="#CD4631"/>
<path d="M11.9121 125.847C12.4802 124.665 13.1259 124.134 14.0647 123.354C17.7116 120.355 21.457 117.459 25.1554 114.549C25.3764 114.382 25.6271 114.198 25.8824 114.09C27.0354 113.543 28.3435 112.887 29.3316 114.083C30.3134 115.302 29.5385 116.504 28.598 117.384C24.6857 121.092 20.7327 124.763 16.7391 128.398C16.134 128.966 15.249 129.358 14.4268 129.515C12.3863 129.899 11.1107 128.274 11.9121 125.847Z" fill="#CD4631"/>
<path d="M70.8021 140.747C70.519 141.803 69.496 142.334 68.8541 142.288C67.9884 142.232 67.3218 141.903 66.3618 140.79C66.0319 140.425 65.9669 139.728 65.8643 139.172C65.1444 135.003 64.3947 130.852 63.728 126.672C63.5508 125.643 63.4113 124.474 63.7396 123.53C64.0428 122.68 64.9162 121.581 65.7023 121.464C66.4649 121.341 67.4057 121.493 68.2026 122.839C68.501 123.321 68.7068 124.056 68.8078 124.712C69.4476 129.086 70.0874 133.459 70.674 137.844C70.7779 138.677 70.7456 139.549 70.8021 140.747Z" fill="#CD4631"/>
<path d="M4.95368 88.4274C3.9555 87.8329 3.38958 87.1276 3.41396 86.3793C3.44171 85.4305 4.20861 84.3527 4.95158 83.6459C5.52054 83.119 6.5431 82.9652 7.38705 82.9145C11.6068 82.6612 15.8438 82.4377 20.0853 82.2909C20.7993 82.2558 21.6633 82.4118 22.2406 82.793C23.1793 83.4219 23.4051 84.3631 22.2957 85.1227C21.6752 85.5604 20.978 86.0026 20.2623 86.138C16.1092 86.9879 11.9514 87.761 7.77647 88.5044C7.01385 88.6272 5.92209 89.0392 4.95368 88.4274Z" fill="#CD4631"/>
<path d="M95.2901 69.4532C94.8302 69.1035 94.6106 68.1388 94.7381 67.5691C94.9222 66.788 95.4086 65.9118 96.048 65.4038C99.0366 62.9837 102.13 60.642 105.194 58.3176C105.642 57.9596 106.182 57.7269 106.723 57.4943C107.94 56.9901 109.437 56.6615 110.015 58.0744C110.349 58.8936 110.048 60.675 109.397 61.1298C105.411 63.9871 101.234 66.6171 97.0799 69.2534C96.7399 69.4894 96.0912 69.844 95.2901 69.4532Z" fill="#CD4631"/>
<path d="M21.3865 44.1909C22.5943 44.9423 23.5409 45.4475 24.4091 46.0576C26.9325 47.8157 29.4495 49.5973 31.9367 51.3961C32.6297 51.9089 33.3696 52.4343 33.8714 53.0972C34.2231 53.5689 34.4771 54.5931 34.2247 54.8778C33.7983 55.3422 33.1932 55.9099 32.2495 55.5815C31.8567 55.4511 31.3465 55.2892 30.9319 55.0523C28.0124 53.3642 25.0803 51.723 22.2094 49.9472C21.2347 49.3589 20.2508 48.6172 19.5881 47.7099C19.1098 47.0533 18.842 45.7989 19.1824 45.1855C19.4869 44.6129 20.2361 43.8826 21.3865 44.1909Z" fill="#CD4631"/>
<path d="M66.9546 45.9831C66.8556 46.2585 66.7567 46.5339 66.5936 46.767C65.8862 47.8105 65.2819 49.0325 63.6935 48.4811C62.0111 47.9045 62.3181 46.477 62.6498 45.3329C63.4625 42.5814 64.4631 39.8803 65.423 37.1431C65.7874 36.1587 66.1816 35.1572 66.7212 34.2701C67.2672 33.3595 67.9368 32.4569 69.2544 32.9861C70.4782 33.4902 70.6743 34.4486 70.3958 35.5818C70.0687 36.8026 67.8059 43.7452 66.9546 45.9831Z" fill="#CD4631"/>
</svg>
