<svg width="120" height="120" viewBox="0 0 120 120" fill="none" xmlns="http://www.w3.org/2000/svg">
<path d="M58.271 59.1456C58.521 58.1456 58.6668 57.3331 58.9377 56.5414C61.646 48.5414 66.0002 41.4164 70.9585 34.6456C71.5418 33.8539 72.271 33.1039 73.0835 32.6039C73.521 32.3331 74.396 32.3747 74.896 32.6456C75.271 32.8539 75.5418 33.6664 75.4585 34.1247C75.3127 34.9997 75.0002 35.8956 74.5627 36.6872C71.6877 41.9164 68.7918 47.1247 65.8543 52.3122C64.7502 54.2497 63.5835 56.1664 62.4376 58.0831C62.0626 58.7289 61.646 59.3539 61.2085 59.9372C60.7293 60.6039 60.0002 60.9997 59.271 60.5622C58.7918 60.2706 58.271 60.0622 58.271 59.1456Z" fill="#CD4631"/>
<path d="M87.7709 90.1672C86.7709 90.0005 85.6043 89.8755 84.4793 89.6255C80.0418 88.6255 75.6043 87.6255 71.1876 86.5838C70.2293 86.3547 69.2918 85.9588 68.4376 85.5005C67.2918 84.8963 66.8959 84.0422 67.0834 83.1047C67.2709 82.1672 68.0209 81.5838 69.3334 81.563C70.2293 81.5422 71.1876 81.563 72.0418 81.7713C77.6459 83.188 83.2501 84.6463 88.8334 86.1255C89.4584 86.2922 90.1043 86.5838 90.5834 87.0005C91.7918 88.0213 91.4168 89.6255 89.8751 90.0213C89.2709 90.1672 88.5834 90.1047 87.7709 90.1672Z" fill="#CD4631"/>
<path d="M29.2292 34.3124C29.3126 33.3332 29.5209 32.354 29.7709 31.3957C30.0001 30.5415 30.5834 29.9374 31.5209 29.854C32.3126 29.7915 33.1667 30.5832 33.2917 31.6249C33.4584 33.0207 33.6042 34.4374 33.5417 35.8332C33.3542 40.0415 33.0834 44.2707 32.7917 48.479C32.6876 49.8749 32.5001 51.2707 32.2709 52.6665C32.1876 53.1457 32.0209 53.6457 31.7501 54.0207C31.0209 55.0832 29.6876 54.9999 29.1667 53.854C28.8751 53.2082 28.7501 52.4165 28.7501 51.7082C28.6459 49.3749 28.9584 37.7707 29.2292 34.3124Z" fill="#CD4631"/>
</svg>
