<svg width="79" height="78" viewBox="0 0 79 78" fill="none" xmlns="http://www.w3.org/2000/svg">
<path d="M29.6146 29.196C28.2604 28.221 27.2719 27.5033 26.2833 26.7992C22.3021 23.9419 18.2938 21.0981 14.3396 18.2002C13.3917 17.5096 12.4979 16.6564 11.8344 15.7085C11.4552 15.1398 11.3333 14.1242 11.5906 13.5283C11.7396 13.1762 12.9583 12.9867 13.5406 13.1898C14.9625 13.6637 16.3438 14.3137 17.6438 15.0585C21.6927 17.4012 25.7011 19.8252 29.8854 22.3169C30.2646 19.8252 30.5896 17.3471 31.05 14.896C31.4021 13.0002 31.8896 11.1044 32.4177 9.24915C32.7563 8.04394 33.474 7.00124 34.9229 7.20436C36.4261 7.40749 36.9136 8.59915 36.8865 9.93978C36.8323 13.9346 36.6969 17.9158 36.6156 21.9106C36.5886 22.8585 36.6156 23.8064 36.6156 24.7544C36.7646 24.8898 38.0375 23.7523 38.6333 23.17C43.725 18.1867 48.8167 13.2304 53.9625 8.30124C54.6802 7.61061 55.5875 7.02832 56.5083 6.64915C56.9958 6.44603 57.9167 6.59499 58.2417 6.94707C58.5667 7.29915 58.6344 8.21999 58.4042 8.69394C57.9708 9.60124 57.3208 10.4273 56.6302 11.1721C52.0938 16.1554 47.5302 21.1117 42.9802 26.0814C42.4792 26.6231 41.9781 27.1919 41.2333 28.0179C44.6458 27.7742 47.7198 27.5033 50.7938 27.3408C56.9823 27.0294 63.1844 26.7721 69.3729 26.5012C69.7521 26.4877 70.1583 26.4877 70.4833 26.5554C72.6094 27.0023 72.4198 29.1283 70.8219 29.3992C68.8719 29.7377 66.9083 30.1575 64.9313 30.3606C57.849 31.0648 50.7667 31.6877 43.6844 32.3512C43.5354 32.3648 43.4 32.4189 42.9531 32.5408C44.9031 34.071 46.7042 35.4794 48.5052 36.8742C51.9042 39.5283 55.3438 42.1419 58.6886 44.8502C59.5823 45.5814 60.3677 46.5429 60.9365 47.545C61.5458 48.6012 60.9094 49.5085 59.7448 49.2242C58.3229 48.8585 56.8604 48.2762 55.6552 47.4502C49.7781 43.4419 43.9823 39.3117 38.1594 35.2221C37.5094 34.7617 36.8594 34.3012 35.9115 33.6106C35.7083 36.6846 35.5458 39.4471 35.3292 42.2096C34.6792 50.4294 34.0292 58.6492 33.3521 66.8689C33.2708 67.7762 33.0948 68.6971 32.824 69.5637C32.4583 70.7554 31.6458 71.5408 30.3323 71.446C29.1 71.3512 28.3823 70.5252 28.1656 69.3606C27.9625 68.2502 27.8542 67.1127 27.8677 65.9887C27.949 58.6492 28.0708 51.3231 28.1792 43.9835C28.1927 43.4419 28.1792 42.9137 28.1792 41.9794C27.5563 42.5752 27.1229 42.9679 26.7031 43.3877C22.0177 48.0731 17.3323 52.7721 12.6333 57.4575C12.1052 57.9856 11.5094 58.5137 10.8323 58.8117C10.3719 59.0148 9.55939 59.0012 9.2073 58.7169C8.85522 58.4325 8.77397 57.6335 8.77397 57.1596C8.78751 55.67 9.58647 55.0065 10.2906 54.1533C14.4344 49.1294 18.6458 44.146 22.8844 39.1898C24.4146 37.4023 26.0802 35.7367 28.0438 33.6512C24.374 34.071 21.1917 34.4773 18.0094 34.7752C14.949 35.0596 11.8886 35.2356 8.81459 35.4523C8.48959 35.4794 8.15105 35.4252 7.85313 35.3846C6.29584 35.195 7.17605 33.5429 7.62293 33.4346C10.6969 32.6762 13.7979 31.945 16.9125 31.3762C20.6094 30.7398 28.775 29.4804 29.6146 29.196Z" fill="black"/>
</svg>
