<svg width="53" height="16" viewBox="0 0 53 16" fill="none" xmlns="http://www.w3.org/2000/svg">
<path d="M5.28799 6.25783C3.22409 5.74865 2.85431 5.37999 2.85431 4.66011C2.85431 3.94023 3.49923 3.48372 4.46255 3.48372C5.49482 3.52323 6.48634 3.90892 7.28232 4.5811C7.29862 4.58956 7.31617 4.59395 7.33434 4.59395C7.35189 4.59395 7.37007 4.58956 7.38574 4.5811C7.41958 4.57445 7.45029 4.5558 7.4716 4.52843L8.48632 3.07111C8.50637 3.04483 8.51765 3.01236 8.51765 2.97893C8.51765 2.94549 8.50637 2.91302 8.48632 2.88674C7.36756 1.95178 5.95924 1.45382 4.51395 1.4821C2.28709 1.4821 0.730863 2.85163 0.730863 4.80058C0.730863 6.89871 2.07212 7.64492 4.39362 8.21556C6.37102 8.68085 6.70633 9.09347 6.70633 9.76945C6.70633 10.4454 6.02694 11.016 4.98652 11.016C3.75683 11.0074 2.57853 10.5098 1.70233 9.62899C1.66911 9.61756 1.63276 9.61756 1.59891 9.62899C1.56382 9.63764 1.53123 9.65584 1.50428 9.68166L0.352301 11.0424C0.328484 11.0684 0.314697 11.103 0.314697 11.1389C0.314697 11.1749 0.328484 11.2094 0.352301 11.2355C1.60393 12.3802 3.2291 13.0064 4.90943 12.9913C7.30802 12.9913 8.86488 11.6481 8.86488 9.57631C8.8304 7.84684 7.79814 6.88115 5.28799 6.25783Z" fill="black"/>
<path d="M14.2645 4.17633C13.7675 4.17317 13.2767 4.28633 12.8299 4.50697C12.3824 4.72761 11.9906 5.04998 11.6848 5.44929V4.4836C11.6829 4.4479 11.6672 4.4144 11.6415 4.38993C11.6158 4.36547 11.582 4.35185 11.5475 4.35191H9.68168C9.64658 4.35185 9.61274 4.36547 9.58704 4.38993C9.56134 4.4144 9.5463 4.4479 9.54379 4.4836V15.1939C9.54379 15.2312 9.55821 15.2669 9.58391 15.2933C9.61023 15.3196 9.6447 15.3344 9.68168 15.3344H11.53C11.5663 15.3344 11.6014 15.3196 11.6271 15.2933C11.6528 15.2669 11.6679 15.2312 11.6679 15.1939V11.8316C11.9837 12.2141 12.3792 12.5204 12.8255 12.7284C13.2711 12.9363 13.7568 13.0408 14.247 13.0343C16.1817 13.0343 18.1422 11.5156 18.1422 8.60091C18.1422 5.68633 16.1987 4.17633 14.2645 4.17633ZM15.9837 8.56579C16.0163 8.87977 15.9843 9.19711 15.8903 9.49779C15.7963 9.79848 15.6421 10.076 15.4378 10.3128C15.2328 10.5495 14.9828 10.7404 14.7026 10.8735C14.4218 11.0064 14.1178 11.0786 13.8089 11.0854C13.4986 11.0756 13.194 11.0018 12.9126 10.8685C12.6312 10.7351 12.3792 10.545 12.1724 10.3095C11.9649 10.0741 11.8064 9.79815 11.7061 9.4985C11.6064 9.19879 11.567 8.88152 11.5901 8.56579C11.5682 8.25078 11.6083 7.93448 11.7092 7.63579C11.8095 7.33718 11.9681 7.06232 12.1755 6.8278C12.3824 6.59335 12.6343 6.40402 12.9145 6.27117C13.1953 6.13839 13.4992 6.06486 13.8089 6.05505C14.1216 6.06054 14.43 6.13251 14.7139 6.26639C14.9978 6.40027 15.2516 6.59309 15.4585 6.83258C15.6659 7.07213 15.822 7.35306 15.9166 7.65755C16.0113 7.96198 16.0432 8.28325 16.0094 8.60091L15.9837 8.56579Z" fill="black"/>
<path d="M23.1805 4.17683C22.3212 4.19252 21.4858 4.46764 20.7794 4.96746C20.0731 5.46735 19.5278 6.16955 19.2119 6.98555C18.896 7.80148 18.824 8.69475 19.0045 9.55251C19.1856 10.4103 19.6112 11.1942 20.2273 11.8054C20.844 12.4166 21.6243 12.8277 22.4692 12.9867C23.314 13.1459 24.1865 13.0459 24.9762 12.6994C25.7653 12.353 26.4371 11.7755 26.9053 11.0399C27.3741 10.3044 27.6186 9.44368 27.6085 8.56629C27.6004 7.98106 27.4801 7.40307 27.2532 6.86554C27.0257 6.32802 26.6972 5.84149 26.2861 5.43378C25.8749 5.02601 25.3886 4.70512 24.8558 4.48945C24.3231 4.27379 23.7534 4.16754 23.1805 4.17683ZM23.1805 11.1386C22.8628 11.1343 22.5494 11.0645 22.2586 10.9333C21.9684 10.8022 21.7064 10.6125 21.4895 10.3754C21.2727 10.1385 21.1054 9.85913 20.9969 9.55426C20.8885 9.24938 20.8415 8.92526 20.859 8.6014C20.839 8.282 20.8835 7.96183 20.9888 7.66056C21.0947 7.35937 21.2602 7.08341 21.4745 6.84986C21.6889 6.61624 21.9477 6.42995 22.2348 6.30239C22.5224 6.17484 22.8327 6.10874 23.1461 6.10822C23.4645 6.11022 23.7797 6.17794 24.0718 6.30743C24.3645 6.43685 24.6283 6.62535 24.8477 6.86148C25.0664 7.09767 25.2369 7.37666 25.3478 7.68167C25.4588 7.98668 25.5083 8.3115 25.4933 8.63652C25.5133 8.95857 25.4682 9.2814 25.361 9.58485C25.2538 9.88838 25.0865 10.1661 24.8696 10.4007C24.6522 10.6354 24.3908 10.822 24.1 10.9489C23.8092 11.0759 23.4964 11.1404 23.1805 11.1386Z" fill="black"/>
<path d="M32.931 4.35282H30.8935V2.22836C30.8935 2.19259 30.8803 2.15812 30.8559 2.13198C30.832 2.1059 30.7995 2.09015 30.7644 2.08789H28.9154C28.8791 2.08789 28.844 2.10267 28.8183 2.12901C28.7926 2.15535 28.7782 2.19111 28.7782 2.22836V4.35282H27.8669C27.8499 4.35282 27.833 4.35624 27.8174 4.36289C27.8017 4.36947 27.7873 4.37922 27.7754 4.39142C27.7635 4.40362 27.7541 4.41815 27.7478 4.43416C27.7409 4.4501 27.7378 4.46727 27.7378 4.48451V6.10863C27.7378 6.14439 27.7509 6.17886 27.7747 6.20501C27.7992 6.23109 27.8318 6.24683 27.8669 6.24909H28.7268V10.4454C28.7268 12.1398 29.5861 13.0001 31.1855 13.0001C31.7872 13.0175 32.382 12.8656 32.9053 12.5612C32.926 12.551 32.9442 12.5348 32.9561 12.5145C32.9686 12.4942 32.9743 12.4708 32.9743 12.447V10.9019C32.9743 10.878 32.9693 10.8544 32.9586 10.833C32.948 10.8116 32.9329 10.7931 32.9141 10.779C32.8934 10.7658 32.8696 10.7588 32.8452 10.7588C32.8207 10.7588 32.7969 10.7658 32.7762 10.779C32.4403 10.9527 32.0693 11.0429 31.6926 11.0424C31.0997 11.0424 30.8333 10.7702 30.8333 10.1645V6.24909H32.8709C32.9072 6.24909 32.9423 6.23431 32.968 6.20798C32.9937 6.18164 33.0081 6.14588 33.0081 6.10863V4.48451C33.0094 4.45727 33.0025 4.43035 32.9887 4.40692C32.9749 4.38355 32.9549 4.36476 32.931 4.35282Z" fill="black"/>
<path d="M40.0239 4.36136V4.09799C40.0239 3.3255 40.3078 2.98312 40.9527 2.98312C41.3112 2.98731 41.6666 3.05567 42.0019 3.18504C42.0207 3.19375 42.0414 3.19827 42.0621 3.19827C42.0827 3.19827 42.1034 3.19375 42.1222 3.18504C42.1385 3.17142 42.1523 3.15399 42.1611 3.13417C42.1699 3.11435 42.1742 3.09273 42.1736 3.07091V1.46434C42.1749 1.43355 42.1667 1.40315 42.1498 1.37778C42.1323 1.35241 42.1078 1.3335 42.079 1.32388C41.5769 1.18903 41.0586 1.1299 40.5403 1.1483C38.8205 1.1483 37.9606 2.13155 37.9606 3.98393V4.3877H37.1007C37.0668 4.3877 37.0336 4.40158 37.0098 4.4263C36.9853 4.45103 36.9716 4.48446 36.9716 4.51939V6.15229C36.9716 6.18805 36.9847 6.22252 37.0092 6.24866C37.033 6.27474 37.0656 6.2905 37.1007 6.29275H37.9606V12.7716C37.9606 12.8065 37.9744 12.8401 37.9982 12.8647C38.0226 12.8894 38.0552 12.9033 38.0897 12.9033H39.9035C39.9386 12.9034 39.9725 12.8898 39.9982 12.8653C40.0239 12.8408 40.0389 12.8073 40.0414 12.7716V6.24886H41.7612L44.4092 12.719C44.1084 13.4037 43.8076 13.5354 43.4033 13.5354C43.0467 13.5255 42.6982 13.426 42.3886 13.2457C42.371 13.2371 42.3522 13.2327 42.3328 13.2327C42.3134 13.2327 42.2946 13.2371 42.277 13.2457C42.2595 13.2508 42.2438 13.2597 42.2307 13.2718C42.2169 13.284 42.2062 13.2991 42.1993 13.3159L41.6233 14.7117C41.6108 14.7435 41.6102 14.7789 41.6208 14.8112C41.6321 14.8435 41.654 14.8706 41.6835 14.8873C42.2846 15.2392 42.9683 15.4183 43.6609 15.4053C45.0197 15.4053 45.7762 14.7556 46.4468 13.0087L49.6539 4.54572C49.6646 4.52545 49.6702 4.50286 49.6702 4.47988C49.6702 4.45696 49.6646 4.43437 49.6539 4.41404C49.6408 4.397 49.6238 4.38338 49.6044 4.37427C49.585 4.36511 49.5637 4.36072 49.5424 4.36136H47.565C47.5374 4.36317 47.5111 4.37221 47.4885 4.38764C47.4659 4.403 47.4478 4.42424 47.4359 4.44915L45.4666 10.1994L43.3431 4.44915C43.3325 4.42301 43.3149 4.40061 43.2918 4.38499C43.2686 4.3693 43.2416 4.36111 43.214 4.36136H40.0239Z" fill="black"/>
<path d="M35.9142 4.35352H34.0659C33.99 4.35352 33.928 4.41639 33.928 4.49398V12.7286C33.928 12.8062 33.99 12.8691 34.0659 12.8691H35.9142C35.9906 12.8691 36.052 12.8062 36.052 12.7286V4.49398C36.052 4.41639 35.9906 4.35352 35.9142 4.35352Z" fill="black"/>
<path d="M34.9941 0.595732C34.7303 0.593989 34.4714 0.672355 34.2514 0.82076C34.0308 0.969229 33.8591 1.18115 33.7569 1.42961C33.6548 1.67814 33.6272 1.95197 33.6773 2.2165C33.7281 2.48103 33.8541 2.72433 34.0402 2.91553C34.2264 3.10667 34.4639 3.23713 34.7221 3.29038C34.981 3.34357 35.2492 3.31717 35.4937 3.21447C35.7375 3.1117 35.9462 2.93729 36.0928 2.71335C36.2401 2.48942 36.3185 2.22599 36.3185 1.95648C36.3191 1.77819 36.2859 1.60145 36.2201 1.43639C36.1536 1.27133 36.0565 1.12131 35.9336 0.994791C35.8102 0.868334 35.6641 0.767956 35.5031 0.699466C35.3414 0.630977 35.169 0.595732 34.9941 0.595732Z" fill="black"/>
<path d="M51.1934 6.99547C51.0223 6.99663 50.853 6.96312 50.6951 6.89696C50.5372 6.83073 50.3936 6.73313 50.2727 6.60983C50.1517 6.48647 50.0564 6.33987 49.9913 6.17856C49.9267 6.01718 49.8941 5.84425 49.8954 5.66989C49.8954 5.31596 50.0326 4.97654 50.2777 4.72628C50.5227 4.47607 50.8555 4.33548 51.2021 4.33548C51.3726 4.33432 51.5418 4.36782 51.7004 4.43398C51.8583 4.50021 52.0019 4.59782 52.1228 4.72111C52.2432 4.84447 52.3391 4.99107 52.4036 5.15244C52.4688 5.31376 52.5014 5.4867 52.5001 5.66111C52.5001 6.01499 52.3629 6.3544 52.1178 6.60467C51.8721 6.85487 51.54 6.99547 51.1934 6.99547ZM51.1934 4.46716C50.9596 4.46542 50.7308 4.53468 50.5359 4.66618C50.341 4.79767 50.1887 4.98538 50.0984 5.20551C50.0082 5.42563 49.9837 5.66821 50.0289 5.90234C50.074 6.13641 50.1868 6.35156 50.3516 6.5203C50.5171 6.68904 50.7277 6.80375 50.9571 6.84984C51.1865 6.89599 51.424 6.8714 51.6396 6.77928C51.8552 6.68717 52.0389 6.53166 52.168 6.33258C52.2964 6.13344 52.3641 5.8997 52.3629 5.66111C52.3641 5.50471 52.3347 5.34965 52.277 5.20486C52.2187 5.06007 52.1335 4.92839 52.0257 4.81736C51.9179 4.70639 51.7894 4.61828 51.6484 4.55818C51.5067 4.49808 51.3551 4.46716 51.2021 4.46716H51.1934ZM51.4854 5.80151L51.8471 6.32826H51.5375L51.2103 5.84547H50.927V6.32826H50.66V4.93245H51.2711C51.5888 4.93245 51.8038 5.09925 51.8038 5.3714C51.8057 5.46784 51.7762 5.56229 51.7205 5.64001C51.6647 5.71779 51.5851 5.77453 51.4942 5.80151H51.4854ZM51.2623 5.16949H50.927V5.60844H51.2623C51.434 5.60844 51.5375 5.52943 51.5375 5.38896C51.5375 5.2485 51.4428 5.16949 51.2711 5.16949H51.2623Z" fill="black"/>
</svg>
