<svg width="127" height="111" viewBox="0 0 127 111" fill="none" xmlns="http://www.w3.org/2000/svg">
<path d="M50.2961 80.0984C46.0308 78.7943 38.3344 78.245 32.4639 69.6393C26.7299 61.2336 48.218 76.9553 47.1364 85.8163C45.8721 96.1742 10.7645 66.9239 19.2299 68.5572C23.966 69.471 43.6954 91.0445 38.4751 93.8202C31.8343 97.3511 6.86162 75.1335 8.29144 72.1656C10.8138 66.9297 38.2223 96.7938 33.6399 101.489C28.1757 107.088 8.62438 89.1284 8.95048 83.6684C9.21136 79.3003 26.7672 101.257 18.584 109.856" stroke="#81ADC8" stroke-width="1.1126" stroke-linecap="round"/>
<path d="M62.3748 9.61679C62.8903 8.15572 61.1102 0.144995 54.6571 2.233" stroke="#F7EDE8" stroke-width="1.1126" stroke-linecap="round"/>
<path d="M67.1824 12.4371C66.6198 12.143 64.5432 8.42062 67.4098 8.00505" stroke="#F7EDE8" stroke-width="1.1126" stroke-linecap="round"/>
<path d="M59.1075 10.6036C60.0718 10.7519 62.0003 11.3601 62.0003 12.6063" stroke="#F7EDE8" stroke-width="1.1126" stroke-linecap="round"/>
<path d="M100.626 95.5775C101.049 95.325 101.508 95.8464 101.204 96.2345L100.793 96.758C100.61 96.9908 100.702 97.3336 100.976 97.445L103.892 98.6293C104.333 98.8085 104.222 99.4621 103.747 99.4861L101.028 99.6231C100.669 99.6412 100.479 100.054 100.697 100.339L101.703 101.646C101.971 101.995 101.625 102.48 101.208 102.339L100.276 102.025C100.023 101.94 99.7523 102.094 99.6977 102.355L99.5163 103.222C99.434 103.616 98.9131 103.707 98.702 103.365L97.9882 102.208C97.7722 101.858 97.2373 101.963 97.1704 102.369L96.8671 104.208C96.7894 104.679 96.1242 104.714 95.9986 104.252L95.2761 101.6C95.2238 101.407 95.0499 101.273 94.8506 101.271L92.3292 101.249C91.8555 101.245 91.7153 100.602 92.1443 100.401L94.1721 99.4515C94.3832 99.3527 94.4822 99.1078 94.3993 98.8901L93.343 96.1173C93.194 95.7259 93.6188 95.3641 93.9815 95.5735L95.482 96.4398C95.6736 96.5504 95.9173 96.5035 96.0542 96.3296L97.216 94.8535C97.5036 94.4881 98.0883 94.7531 98.0032 95.2102L97.7791 96.4143C97.7091 96.7908 98.1157 97.0741 98.4446 96.878L100.626 95.5775Z" fill="#CD4631"/>
<path d="M99.8929 84.9687C99.2482 84.5855 99.6279 83.5944 100.364 83.74L104.076 84.475C104.906 84.6394 105.609 83.853 105.352 83.0463L103.763 78.0527C103.545 77.3653 104.42 76.8677 104.899 77.4074L107.433 80.2646C107.933 80.8283 108.837 80.7425 109.222 80.0948L111.826 75.7131C112.163 75.1462 113.03 75.3592 113.066 76.0176L113.368 81.5226C113.409 82.2566 114.137 82.7505 114.834 82.5163L117.452 81.6365C118.141 81.4047 118.651 82.2861 118.107 82.7687L115.381 85.1865C114.817 85.6864 114.903 86.5903 115.551 86.9753L118.184 88.5404C118.824 88.9208 118.455 89.9049 117.723 89.7709L112.962 88.8997C112.096 88.7414 111.398 89.603 111.732 90.4169L113.091 93.726C113.384 94.4379 112.438 94.9978 111.955 94.3992L108.82 90.5189C108.242 89.8046 107.097 90.0575 106.875 90.9483L106.52 92.3692C106.326 93.1434 105.183 92.9871 105.205 92.1894L105.236 91.0347C105.258 90.223 104.431 89.6621 103.685 89.9824L101.343 90.9876C100.647 91.2867 100.07 90.3777 100.637 89.8748L102.511 88.2127C103.075 87.7128 102.989 86.8089 102.341 86.4239L99.8929 84.9687Z" fill="black" stroke="black" stroke-width="0.44504"/>
</svg>
