<svg width="18" height="18" viewBox="0 0 18 18" fill="none" xmlns="http://www.w3.org/2000/svg">
<path d="M17.0253 4.43473V6.93529C17.0253 6.93529 15.8407 6.88887 14.9633 6.66577C13.7387 6.35374 12.9513 5.87516 12.9513 5.87516C12.9513 5.87516 12.408 5.53387 12.364 5.50969V12.1022C12.364 12.4692 12.2635 13.3862 11.9571 14.1503C11.557 15.1507 10.9397 15.8072 10.8261 15.9414C10.8261 15.9414 10.0749 16.8287 8.75067 17.4262C7.55706 17.9653 6.50874 17.9516 6.19498 17.9653C6.19498 17.9653 4.38321 18.0371 2.75213 16.9773L2.74399 16.9715C2.57178 16.8047 2.40968 16.6286 2.25849 16.4441C1.73799 15.8095 1.41894 15.0591 1.33877 14.845C1.33863 14.844 1.33863 14.8431 1.33877 14.8422C1.20976 14.4701 0.938731 13.5765 0.975764 12.711C1.04128 11.184 1.57847 10.2467 1.72049 10.0119C2.09664 9.37163 2.58587 8.79874 3.16641 8.31877C3.6787 7.90459 4.25936 7.57505 4.88458 7.34366C5.56046 7.07198 6.28422 6.92637 7.01703 6.91462V9.44599C7.01703 9.44599 5.67652 9.02084 4.60378 9.77362C3.85376 10.3306 3.45576 10.8739 3.33855 11.8444C3.33367 12.5585 3.51639 13.5691 4.51873 14.2431C4.63566 14.3172 4.75042 14.383 4.86301 14.4405C5.03812 14.6681 5.25125 14.8664 5.49379 15.0275C6.47293 15.6473 7.29336 15.6906 8.34249 15.288C9.04205 15.0189 9.56865 14.4124 9.81282 13.7404C9.96625 13.3207 9.96421 12.8982 9.96421 12.4614V0.034668H12.4059C12.5069 0.60842 12.786 1.42517 13.5243 2.23411C13.8204 2.53956 14.1539 2.8096 14.5176 3.03838C14.6251 3.14954 15.1745 3.69911 15.8797 4.0365C16.2444 4.21089 16.6288 4.34452 17.0253 4.43473Z" fill="black"/>
</svg>
