<svg width="128" height="128" viewBox="0 0 128 128" fill="none" xmlns="http://www.w3.org/2000/svg">
<path d="M-5.07153 -46.3511C7.88388 -45.9844 18.7664 -42.8677 28.0943 -35.5343C41.9134 -24.901 48.823 -10.4175 47.9593 7.9159C47.6138 14.8826 44.85 20.9326 40.5315 26.066C33.1038 35.0494 23.4304 39.4494 12.2024 40.9161C11.1659 41.0994 10.3022 41.0994 9.26579 40.9161C-1.96223 38.8994 -13.0175 36.6994 -23.0364 30.6494C-35.9918 22.3993 -42.7286 10.1159 -42.5558 -6.01751C-42.2104 -24.5343 -28.564 -41.9511 -11.9811 -45.6177C-9.21726 -46.1677 -6.45344 -46.1677 -5.07153 -46.3511ZM-3.86235 -26.3676C-6.2807 -25.8176 -8.87178 -25.6343 -11.1174 -24.7176C-21.6544 -20.1343 -26.4911 -5.28417 -20.7908 5.16589C-18.8906 8.83258 -15.9541 11.5826 -12.4993 13.4159C-5.93522 16.8993 1.14707 19.0993 8.4021 19.8326C11.8569 20.1993 15.6571 19.466 18.9392 17.9993C26.8851 14.6993 30.1672 8.28257 28.4398 -0.15081C26.8851 -7.85086 23.2576 -14.4509 17.039 -19.0343C10.9932 -23.4343 3.91089 -25.6343 -3.86235 -26.3676Z" fill="#CD4631"/>
<path d="M12.5557 -90.3511C19.638 -89.6177 26.8931 -89.4344 33.9753 -88.3344C50.3855 -85.5844 63.6864 -76.601 73.7053 -62.6676C86.8334 -44.7008 93.9157 -24.1674 94.6067 -1.25056C94.9521 7.54949 93.2248 15.9829 89.9425 24.0496C86.8332 31.5663 83.0331 38.7163 78.0237 45.133C61.2681 66.3997 40.8849 81.4331 14.4558 85.2831C-3.33624 87.8498 -20.9556 86.7498 -37.7113 80.1497C-49.2848 75.383 -59.8219 68.5997 -69.1498 59.983C-72.2591 57.0496 -74.8502 53.1998 -77.0958 49.3497C-83.1417 38.533 -86.7692 26.6163 -90.0511 14.6995C-91.0875 11.0329 -90.9148 6.81616 -90.9148 2.96614C-90.9148 -21.6007 -82.6234 -42.5008 -65.3496 -59.1842C-45.6572 -78.0677 -22.683 -88.8844 4.26427 -89.8011C7.02792 -89.8011 9.79191 -89.8011 12.5557 -89.8011C12.5557 -89.9844 12.5557 -90.1677 12.5557 -90.3511ZM12.2102 -69.8176C-10.4185 -70.551 -30.4562 -63.0343 -48.0756 -48.1842C-55.3307 -41.9508 -61.5493 -34.8008 -65.695 -25.634C-75.1957 -4.55058 -73.2955 15.7995 -62.2403 35.5997C-60.5129 38.7162 -57.9218 41.283 -55.158 43.483C-50.6667 47.1497 -46.0027 50.4497 -41.166 53.5664C-28.2106 61.9996 -14.3915 66.7663 1.15497 66.033C31.2113 64.5663 53.1493 49.3497 68.8686 23.1329C70.7687 20.0162 72.1506 16.7162 73.187 13.2329C74.396 9.38284 75.2599 5.16615 75.4327 1.31612C75.4327 -18.6673 69.214 -36.4508 57.4678 -51.6675C49.8673 -61.3842 40.0212 -67.2509 27.9295 -68.5343C22.7473 -69.2676 17.3924 -69.451 12.2102 -69.8176Z" fill="#81ADC8"/>
<path d="M-13.1936 128C-27.5309 128 -39.4499 125.983 -50.8506 121.033C-58.2785 117.733 -65.0153 113.15 -70.8884 107.1C-78.8344 98.8498 -87.1258 90.5998 -95.2445 82.5331C-95.9354 81.7997 -96.7991 81.2497 -97.4901 80.5164C-100.254 77.7664 -103.536 75.1997 -105.782 71.8997C-117.355 55.2162 -126.165 37.0661 -128.41 15.9827C-130.31 -1.80076 -127.547 -18.8509 -121.155 -35.1676C-116.146 -48.1844 -109.755 -60.2844 -101.29 -70.9178C-92.6534 -81.7346 -82.8074 -90.5346 -71.0611 -97.318C-57.0693 -105.018 -42.9046 -112.351 -28.0491 -118.218C-6.80224 -126.468 15.3083 -129.768 37.9371 -128.851C46.2286 -128.485 54.1745 -126.468 61.4296 -122.251C70.0665 -117.301 78.7034 -112.168 86.6494 -106.301C103.404 -94.2013 113.596 -76.6012 120.16 -56.8011C129.488 -28.5676 130.524 0.399246 123.097 29.3661C121.542 35.4161 119.469 41.4662 116.878 46.9662C104.786 72.2663 87.6859 92.6164 63.5024 105.817C38.6281 119.383 12.5445 126.717 -13.1936 128ZM-13.5391 107.65C10.1262 106.183 33.7914 99.3998 56.0747 87.1164C74.2122 77.033 87.1676 61.6329 97.1865 43.1162C100.123 37.6161 102.713 31.5661 104.268 25.3327C111.005 -0.70076 110.141 -26.7342 101.159 -52.0344C95.8046 -67.0678 88.0313 -80.4512 75.0759 -89.8013C68.1664 -94.7513 60.7386 -99.1513 53.3108 -103.551C47.6105 -106.851 41.3919 -108.318 35.0005 -108.501C15.1356 -108.868 -4.3839 -105.935 -23.0397 -98.418C-36.1678 -93.1013 -48.9505 -86.5013 -61.3878 -79.5345C-71.0611 -74.0345 -79.1799 -66.8845 -86.2621 -58.0844C-93.3444 -49.2844 -98.5265 -39.3843 -102.845 -28.7509C-109.409 -12.6175 -111.655 3.8826 -108.2 21.116C-106.645 28.8161 -104.572 35.9661 -98.6993 41.6495C-95.9354 44.3995 -93.8626 48.0662 -91.7897 51.3662C-89.8896 54.2996 -88.1622 57.2329 -86.6076 60.3496C-84.0165 65.1163 -80.7345 69.1497 -76.9342 72.8163C-70.8884 78.683 -64.6698 84.7331 -58.9694 90.9664C-52.9235 97.3831 -45.8412 101.6 -37.8952 104.167C-30.2947 106.733 -22.6942 107.65 -13.5391 107.65Z" fill="#F7EDE8"/>
</svg>
