<svg width="145" height="68" viewBox="0 0 145 68" fill="none" xmlns="http://www.w3.org/2000/svg">
<path d="M4.02504 12.2723C4.01082 12.1174 3.99329 11.9569 3.9662 11.7954L3.96639 11.7954L3.96411 11.7841C3.85349 11.24 3.5393 10.782 2.98935 10.4507C2.95251 10.4284 2.91532 10.4056 2.87772 10.3826C2.46623 10.1306 2.00647 9.84915 1.42221 9.72819C2.17017 9.58521 2.7549 9.3089 3.21488 8.92553C3.73141 8.49503 4.0689 7.94762 4.31059 7.35678L4.31059 7.35678L4.31129 7.35504C4.35543 7.24539 4.39217 7.12962 4.4242 7.01443C4.42149 7.05643 4.41877 7.09866 4.41605 7.14118L4.41605 7.14118L4.41594 7.14303C4.41066 7.23363 4.40315 7.33059 4.39537 7.43112C4.3788 7.64511 4.36098 7.87524 4.36068 8.09454C4.34959 8.46116 4.50463 8.75417 4.73472 8.97466C4.95719 9.18786 5.25141 9.3365 5.54419 9.44561L5.54417 9.44566L5.54963 9.44759C5.61307 9.46999 5.67784 9.49081 5.74393 9.50976C5.71734 9.51671 5.69089 9.52377 5.66459 9.5309L5.66456 9.5308L5.65654 9.53319C5.43727 9.59856 5.18687 9.73422 5.03709 9.92763C5.03321 9.9321 5.0293 9.93659 5.02538 9.94111C4.83885 10.1558 4.60262 10.4276 4.48978 10.7456C4.34257 11.1482 4.22399 11.5687 4.11017 11.9723C4.08162 12.0736 4.05337 12.1737 4.02504 12.2723ZM4.47463 6.21974L4.47463 6.2198C4.47463 6.21957 4.47463 6.21955 4.47463 6.21974Z" stroke="#81ADC8" stroke-width="0.66756"/>
<path d="M6.0192 13.8201L6.19246 13.5348C6.17813 13.5261 6.16332 13.517 6.14803 13.5076C6.11972 13.4902 6.08975 13.4718 6.05808 13.453C6.14678 13.4048 6.22843 13.3494 6.30341 13.2869C6.36653 13.2343 6.4233 13.178 6.47455 13.119C6.51014 13.1867 6.55671 13.2459 6.60915 13.2961C6.6408 13.3264 6.67461 13.3537 6.70959 13.3781C6.70919 13.3786 6.7088 13.3791 6.70841 13.3796C6.70646 13.3818 6.70446 13.3841 6.70241 13.3865C6.63484 13.4639 6.52109 13.5943 6.46427 13.7536C6.46322 13.7565 6.46217 13.7594 6.46112 13.7623C6.38887 13.6755 6.29891 13.5989 6.19135 13.5341L6.0192 13.8201ZM6.0192 13.8201C6.18609 13.9205 6.28198 14.0519 6.32324 14.2059L5.6374 13.6131C5.75977 13.6616 5.86883 13.7283 5.97854 13.7953C5.99208 13.8036 6.00562 13.8118 6.0192 13.8201Z" stroke="#81ADC8" stroke-width="0.66756"/>
<path d="M1.71056 14.7882L1.70459 14.7869L1.71056 14.7882ZM1.70603 14.7973L1.71507 14.7892L1.92258 14.922C1.86279 14.8931 1.7988 14.8702 1.72569 14.8593C1.72198 14.8587 1.71814 14.858 1.71426 14.857C1.71281 14.8567 1.71135 14.8563 1.7099 14.8559C1.69266 14.8513 1.67529 14.8434 1.66543 14.8336L1.70386 14.7992L1.70603 14.7973Z" stroke="#CD4631" stroke-width="0.66756"/>
<path d="M136.598 67.7096C136.598 66.7801 136.394 65.5577 136.871 64.6993C137.008 64.4532 136.904 64.2208 137.104 64.0202C137.319 63.8058 137.61 63.6749 137.834 63.4728C138.734 62.6625 138.787 60.8586 138.787 59.682C138.787 58.0597 140.154 56.9257 140.794 55.4858C141.178 54.622 141.835 53.3221 142.476 52.6072C143.171 51.8322 144.108 50.8346 144.443 49.83" stroke="black" stroke-width="0.534048" stroke-linecap="round"/>
<path d="M140.715 58.8389C140.715 58.0912 140.725 57.9454 141.032 57.4078C141.209 57.0972 141.886 56.8795 141.976 56.5632C142.051 56.3026 142.591 55.7071 142.827 55.5896C143.281 55.3622 143.548 54.6517 143.777 54.1937" stroke="black" stroke-width="0.534048" stroke-linecap="round"/>
<path d="M7.59099 45.1988C6.37124 45.1691 5.67312 43.5814 4.64518 44.5066C4.07676 45.0182 2.97786 44.0853 2.55365 43.8732" stroke="black" stroke-width="0.534048" stroke-linecap="round"/>
<path d="M8.38643 47.1872C8.03951 47.1872 7.5615 47.2706 7.22284 47.1577C7.0245 47.0916 6.92151 46.8749 6.72941 46.7895C6.59007 46.7276 6.06607 46.5403 6.00033 46.4581C5.6728 46.0487 4.7824 47.6254 4.14446 47.0546C3.46925 46.4505 2.46576 46.3577 1.69207 45.9279C1.38263 45.7559 1.07919 45.7273 0.830424 45.4639C0.648052 45.2708 0.595905 44.9133 0.432739 44.6685" stroke="black" stroke-width="0.534048" stroke-linecap="round"/>
<path d="M119.633 8.92732C119.46 8.47403 120.051 8.12361 120.366 8.49293L121.954 10.3562C122.309 10.7731 122.981 10.6562 123.175 10.1438L124.374 6.97236C124.539 6.53583 125.183 6.63496 125.209 7.10091L125.348 9.56802C125.375 10.0548 125.868 10.3742 126.324 10.2001L129.404 9.02272C129.803 8.8704 130.157 9.3267 129.911 9.67527L127.854 12.5896C127.58 12.9782 127.751 13.5212 128.199 13.6822L129.88 14.2868C130.323 14.4461 130.228 15.0982 129.758 15.1245L127.404 15.2566C126.917 15.2839 126.598 15.777 126.772 16.2323L127.48 18.0838C127.652 18.5337 127.069 18.8849 126.752 18.5229L124.686 16.1692C124.31 15.7413 123.61 15.8981 123.453 16.4453L122.814 18.67C122.676 19.1486 121.972 19.053 121.967 18.5551L121.934 15.3275C121.928 14.7334 121.246 14.4019 120.775 14.7645L120.024 15.3428C119.615 15.6579 119.098 15.1197 119.429 14.7236L119.909 14.1502C120.246 13.7472 120.051 13.1306 119.544 12.9935L117.953 12.5634C117.479 12.4355 117.551 11.7427 118.041 11.7152L119.659 11.6244C120.146 11.5971 120.465 11.104 120.291 10.6487L119.633 8.92732Z" fill="black" stroke="black" stroke-width="0.287953"/>
<path d="M79.6161 25.13C80.5743 23.4702 82.1527 22.2591 84.0039 21.763C85.8552 21.267 87.8277 21.5267 89.4874 22.4849C91.1472 23.4432 92.3583 25.0216 92.8544 26.8728C93.3504 28.7241 93.0907 30.6965 92.1325 32.3563L88.3775 30.1884C88.7609 29.5245 88.8647 28.7355 88.6663 27.995C88.4679 27.2545 87.9834 26.6232 87.3195 26.2399C86.6556 25.8566 85.8666 25.7527 85.1261 25.9511C84.3856 26.1495 83.7543 26.634 83.371 27.2979L79.6161 25.13Z" fill="#CD4631"/>
<path d="M10.7199 14.6155C11.6514 14.2923 12.5083 13.833 13.4999 13.8046C14.5506 13.7746 14.6611 14.0501 15.469 14.5254C16.0314 14.8562 16.2405 15.717 16.7431 16.0312C17.0543 16.2256 17.2347 16.7287 17.4961 16.99C17.9188 17.4128 18.3613 17.8909 18.8281 18.2577C20.1818 19.3214 21.5429 20.5735 22.7664 21.797C23.319 22.3496 23.9948 22.7616 24.6454 23.187C25.0093 23.4249 25.2827 23.6503 25.7201 23.6503C26.2466 23.6503 26.3747 23.3584 26.8205 23.1355C27.4493 22.8211 28.0389 22.6078 28.7317 22.6078C29.0382 22.6078 30.4589 22.9867 29.8064 23.5088C29.461 23.7851 30.0943 23.6503 30.4048 23.6503C30.8224 23.6503 31.1828 23.5498 31.5953 23.5345C32.1867 23.5126 32.8899 23.4027 33.4744 23.2964C33.6865 23.2578 34.397 23.0147 34.5812 23.2449C34.8278 23.5531 34.9287 23.5646 34.9287 23.9978C34.9287 24.337 34.8012 24.6928 35.2183 24.6928C36.0706 24.6928 36.7143 24.5207 37.477 24.1394C38.3804 23.6877 38.9127 23.0562 39.9095 22.8138C40.6164 22.6418 41.3241 22.492 42.0523 22.492C42.792 22.492 43.5965 22.5597 44.3046 22.3118C46.4171 21.5725 48.3881 20.7376 50.2828 19.5319C51.5954 18.6966 53.0596 18.1558 54.3948 17.3311C55.9416 16.3757 57.4826 15.5265 58.9959 14.4996C60.1718 13.7017 61.5847 13.2199 62.754 12.4404C63.0247 12.26 63.8021 12.2742 64.144 12.2087C64.42 12.1559 64.7164 12.2367 64.987 12.1766C65.4344 12.0771 65.9691 12.0042 66.377 11.7776C67.0143 11.4235 67.7297 11.1489 68.3525 10.793C69.2626 10.273 69.9266 9.45794 70.5405 8.61796C70.8858 8.14542 72.2469 7.8108 72.8056 7.7814C73.5608 7.74165 74.5772 7.27222 75.1802 6.80326C76.0757 6.10675 77.2235 5.5806 78.3655 5.5806C79.5287 5.5806 80.7037 5.53754 81.8662 5.5806C82.4864 5.60357 82.8546 6.37268 82.883 6.85475C82.9301 7.65632 83.136 8.14809 83.4621 8.8818C83.8224 9.69241 85.0074 9.87765 85.7787 10.098C86.5896 10.3297 86.9855 11.2132 87.4004 11.8355" stroke="#F7EDE8" stroke-width="0.66756" stroke-linecap="round"/>
<path d="M9.28768 20.4653C9.28768 21.7216 9.28768 22.9779 9.28768 24.2342C9.28768 25.1058 9.15233 26.0895 9.43101 26.9255C9.79716 28.024 10.0435 29.127 10.5086 30.1902C10.9271 31.1468 11.5998 32.0485 12.2497 32.8656C13.5126 34.4532 15.4357 35.4607 17.2608 36.2789C18.0384 36.6274 18.8595 37.0079 19.6018 37.4255C19.8467 37.5632 20.12 37.69 20.3768 37.8024C20.5281 37.8685 20.9455 37.8802 21.0404 37.9988C21.2481 38.2585 21.249 38.867 21.3483 39.2144C21.4809 39.6785 21.5181 40.0503 21.5181 40.5309C21.5181 40.883 21.5181 41.2351 21.5181 41.5872C21.5181 42.2416 21.9871 42.8747 22.3303 43.4027C22.7386 44.0309 23.0869 44.643 23.5247 45.2341C24.0663 45.9652 24.8981 46.4655 25.6056 47.0283C26.3264 47.6017 26.9731 48.0763 27.8457 48.3448C29.6737 48.9072 31.8046 48.7482 33.6955 48.7482C34.4123 48.7482 35.2842 48.7945 35.8295 48.2492C36.1949 47.8838 36.4236 47.4009 36.7319 46.9858C37.5411 45.8965 38.1338 44.2267 38.2342 42.8718C38.2856 42.1776 38.2395 41.4666 38.2395 40.7697C38.2395 40.39 38.5936 40.543 38.9083 40.5256C39.3615 40.5004 39.8099 40.3311 40.2407 40.1964C41.6046 39.7702 42.9963 39.2747 44.4078 39.0021C45.785 38.736 47.3202 38.9065 48.7182 38.9065C49.5463 38.9065 50.3744 38.9065 51.2025 38.9065C52.2491 38.9065 53.2305 38.5848 54.2495 38.381C56.0093 38.029 57.7972 37.8639 59.526 37.3777C60.6058 37.074 61.6408 36.6734 62.7004 36.3266C63.3666 36.1086 64.0207 35.9407 64.6432 35.6047C65.0162 35.4034 65.3881 35.149 65.7792 34.9889C66.4211 34.7264 67.0345 34.2449 67.669 34.0334" stroke="#F7EDE8" stroke-width="0.66756" stroke-linecap="round"/>
</svg>
