<svg width="79" height="89" viewBox="0 0 79 89" fill="none" xmlns="http://www.w3.org/2000/svg">
<path d="M20.2912 59.9355C21.243 59.3681 22.2741 60.5398 21.5902 61.4116L20.6674 62.588C20.2571 63.1111 20.462 63.8815 21.0779 64.1317L27.6299 66.7927C28.6214 67.1955 28.3728 68.6641 27.3039 68.718L21.1947 69.026C20.3892 69.0666 19.9607 69.9951 20.4524 70.6344L22.7121 73.5722C23.3148 74.3557 22.5365 75.4454 21.5999 75.1294L19.5045 74.4226C18.9366 74.2311 18.3288 74.5787 18.2061 75.1655L17.7987 77.1133C17.6137 77.9979 16.4432 78.2028 15.9688 77.4336L14.365 74.8338C13.8795 74.0468 12.6777 74.2838 12.5273 75.1961L11.8459 79.3277C11.6712 80.3874 10.1766 80.464 9.89437 79.4278L8.27099 73.4669C8.15331 73.0347 7.76269 72.7336 7.31487 72.7297L1.64913 72.6801C0.584773 72.6708 0.269814 71.226 1.23372 70.7746L5.7903 68.6403C6.26444 68.4183 6.48702 67.8681 6.30064 67.3788L3.92733 61.1484C3.59236 60.269 4.54688 59.4559 5.36183 59.9264L8.73345 61.873C9.16399 62.1216 9.71176 62.0161 10.0192 61.6254L12.6298 58.3087C13.276 57.4877 14.5899 58.083 14.3987 59.1102L13.8952 61.8157C13.7378 62.6617 14.6513 63.2982 15.3904 62.8576L20.2912 59.9355Z" fill="#CD4631"/>
<path d="M18.6448 36.0977C17.1961 35.2366 18.0494 33.0095 19.7026 33.3368L28.0432 34.9882C29.9091 35.3577 31.4877 33.5906 30.9111 31.7779L27.3414 20.5574C26.8501 19.0129 28.8177 17.8948 29.8931 19.1073L35.5868 25.5275C36.7102 26.7942 38.7413 26.6014 39.6063 25.1461L45.4583 15.3004C46.2154 14.0267 48.1643 14.5051 48.2455 15.9846L48.9242 28.3544C49.0147 30.0036 50.6513 31.1134 52.217 30.5871L58.0989 28.6101C59.648 28.0894 60.7948 30.0698 59.5721 31.1541L53.4463 36.5869C52.1796 37.7102 52.3724 39.7413 53.8277 40.6063L59.7446 44.1232C61.1826 44.9779 60.3538 47.1892 58.7082 46.8881L48.01 44.9306C46.0651 44.5747 44.4962 46.5107 45.2475 48.3396L48.3016 55.7752C48.9587 57.3748 46.8341 58.633 45.7473 57.2878L38.7028 48.5688C37.4061 46.9638 34.8331 47.532 34.3328 49.5337L33.5348 52.7264C33.1 54.4659 30.5319 54.1148 30.5801 52.3223L30.6499 49.7278C30.699 47.904 28.8411 46.6435 27.1646 47.3633L21.9035 49.6221C20.3385 50.294 19.0422 48.2515 20.3165 47.1215L24.5275 43.3869C25.7941 42.2636 25.6014 40.2325 24.146 39.3675L18.6448 36.0977Z" fill="black" stroke="black"/>
</svg>
