<svg width="31" height="22" viewBox="0 0 31 22" fill="none" xmlns="http://www.w3.org/2000/svg">
<path fill-rule="evenodd" clip-rule="evenodd" d="M13.0031 0.0409713C13.0031 0.067713 12.2264 0.0816972 10.7511 0.0816972C8.77542 0.0816972 8.49906 0.0893027 8.49906 0.143032C8.49906 0.19627 8.35101 0.204366 7.40231 0.204366C6.45362 0.204366 6.30557 0.212707 6.30557 0.2657C6.30557 0.317957 6.20334 0.327034 5.62031 0.327034C5.03704 0.327034 4.93481 0.336357 4.93481 0.388369C4.93481 0.439644 4.85656 0.449703 4.46481 0.449703C4.0632 0.449703 3.99481 0.459271 3.99481 0.514226C3.99481 0.564521 3.95463 0.577033 3.80869 0.571881C3.471 0.559859 3.40731 0.569673 3.40731 0.633706C3.40731 0.681546 3.35514 0.69504 3.17231 0.69504C2.98948 0.69504 2.93731 0.708779 2.93731 0.756374C2.93731 0.799308 2.89595 0.817708 2.80031 0.817708C2.70443 0.817708 2.66307 0.836354 2.66307 0.879043C2.66307 0.920014 2.62406 0.940377 2.54557 0.940377C2.46731 0.940377 2.42807 0.960985 2.42807 1.00171C2.42807 1.04268 2.38906 1.06305 2.31057 1.06305C2.23231 1.06305 2.19307 1.08365 2.19307 1.12438C2.19307 1.15824 2.16675 1.18571 2.13432 1.18571C2.10212 1.18571 2.07557 1.21344 2.07557 1.24705C2.07557 1.28802 2.03656 1.30838 1.95807 1.30838C1.87981 1.30838 1.84057 1.32899 1.84057 1.36972C1.84057 1.40357 1.81425 1.43105 1.78182 1.43105C1.74962 1.43105 1.72307 1.45877 1.72307 1.49239C1.72307 1.52624 1.69675 1.55372 1.66432 1.55372C1.63212 1.55372 1.60557 1.58144 1.60557 1.61505C1.60557 1.64891 1.57925 1.67639 1.54682 1.67639C1.51462 1.67639 1.48807 1.70411 1.48807 1.73772C1.48807 1.77158 1.46175 1.79906 1.42932 1.79906C1.39712 1.79906 1.37057 1.82678 1.37057 1.86039C1.37057 1.89425 1.34425 1.92173 1.31182 1.92173C1.27281 1.92173 1.25307 1.9627 1.25307 2.04439C1.25307 2.12634 1.23356 2.16706 1.19432 2.16706C1.16212 2.16706 1.13557 2.19479 1.13557 2.2284C1.13557 2.26225 1.10925 2.28973 1.07682 2.28973C1.03781 2.28973 1.01807 2.3307 1.01807 2.4124C1.01807 2.49434 0.998565 2.53507 0.95932 2.53507C0.92031 2.53507 0.90057 2.57604 0.90057 2.65774C0.90057 2.73968 0.881065 2.7804 0.84182 2.7804C0.80093 2.7804 0.78307 2.82358 0.78307 2.92368C0.78307 3.02353 0.765445 3.06671 0.72432 3.06671C0.67873 3.06671 0.66557 3.12118 0.66557 3.31205C0.66557 3.50292 0.652645 3.55739 0.60682 3.55739C0.56076 3.55739 0.54807 3.61406 0.54807 3.82309C0.54807 4.03211 0.535615 4.08903 0.48932 4.08903C0.44185 4.08903 0.43057 4.15478 0.43057 4.43643C0.43057 4.71808 0.419525 4.78407 0.37182 4.78407C0.32294 4.78407 0.31307 4.86577 0.31307 5.27475C0.31307 5.68372 0.303435 5.76542 0.25432 5.76542C0.2045 5.76542 0.19557 5.87214 0.19557 6.48107C0.19557 7.08975 0.186875 7.19647 0.13682 7.19647C0.0881746 7.19647 0.0780696 7.27572 0.0780696 7.66335C0.0780696 7.99848 0.0644396 8.13611 0.0291896 8.15083C-0.0100554 8.16727 -0.0100554 8.17218 0.0291896 8.17463C0.0914646 8.1788 0.101335 9.81348 0.0390596 9.81348C0.0136796 9.81348 -0.000185391 10.2497 -0.000185391 11.0402C-0.000185391 11.8306 0.0136796 12.2669 0.0390596 12.2669C0.0642046 12.2669 0.0780696 12.7234 0.0780696 13.5549C0.0780696 14.6726 0.0858246 14.8429 0.13682 14.8429C0.186875 14.8429 0.19557 14.9518 0.19557 15.5789C0.19557 16.206 0.204265 16.3149 0.25432 16.3149C0.303435 16.3149 0.31307 16.3966 0.31307 16.8056C0.31307 17.2146 0.32294 17.2963 0.37182 17.2963C0.41929 17.2963 0.43057 17.3598 0.43057 17.6233C0.43057 17.8868 0.442085 17.9506 0.48932 17.9506C0.53585 17.9506 0.54807 18.009 0.54807 18.2325C0.54807 18.4452 0.56264 18.52 0.60682 18.5377C0.648415 18.5543 0.66557 18.6218 0.66557 18.7671C0.66557 18.9226 0.679905 18.9727 0.72432 18.9727C0.763565 18.9727 0.78307 19.0136 0.78307 19.0953C0.78307 19.1773 0.80281 19.218 0.84182 19.218C0.881065 19.218 0.90057 19.259 0.90057 19.3407C0.90057 19.4226 0.92031 19.4633 0.95932 19.4633C0.998565 19.4633 1.01807 19.5043 1.01807 19.586C1.01807 19.6679 1.03781 19.7087 1.07682 19.7087C1.11606 19.7087 1.13557 19.7496 1.13557 19.8313C1.13557 19.9133 1.15531 19.954 1.19432 19.954C1.22675 19.954 1.25307 19.9817 1.25307 20.0153C1.25307 20.0492 1.27962 20.0767 1.31182 20.0767C1.34425 20.0767 1.37057 20.1044 1.37057 20.138C1.37057 20.1719 1.39712 20.1993 1.42932 20.1993C1.46175 20.1993 1.48807 20.2271 1.48807 20.2607C1.48807 20.2945 1.51462 20.322 1.54682 20.322C1.57925 20.322 1.60557 20.3497 1.60557 20.3833C1.60557 20.4172 1.63212 20.4447 1.66432 20.4447C1.69675 20.4447 1.72542 20.4724 1.728 20.506C1.7374 20.624 1.74304 20.6427 1.77829 20.6765C1.79897 20.6961 1.80273 20.69 1.78746 20.6623C1.77289 20.6358 1.779 20.6024 1.80085 20.5882C1.82271 20.5742 1.84057 20.5914 1.84057 20.6262C1.84057 20.6613 1.86712 20.69 1.89932 20.69C1.93175 20.69 1.95807 20.7177 1.95807 20.7513C1.95807 20.7923 1.99731 20.8127 2.07557 20.8127C2.15406 20.8127 2.19307 20.8333 2.19307 20.874C2.19307 20.9079 2.21962 20.9353 2.25182 20.9353C2.28425 20.9353 2.31057 20.9631 2.31057 20.9967C2.31057 21.0396 2.35193 21.058 2.44781 21.058C2.54345 21.058 2.58481 21.0767 2.58481 21.1194C2.58481 21.1603 2.62406 21.1807 2.70231 21.1807C2.77869 21.1807 2.81981 21.2015 2.81981 21.2398C2.81981 21.2813 2.87527 21.3026 3.00593 21.3114C3.12907 21.3198 3.18853 21.3411 3.18218 21.375C3.17513 21.4118 3.24422 21.426 3.42682 21.426C3.62704 21.426 3.68156 21.4393 3.68156 21.4874C3.68156 21.5379 3.75112 21.5487 4.07307 21.5487C4.39525 21.5487 4.46481 21.5597 4.46481 21.61C4.46481 21.6618 4.55576 21.6714 5.04808 21.6714C5.53054 21.6714 5.63535 21.6822 5.65391 21.7327C5.67318 21.7847 5.81066 21.794 6.5589 21.794C7.31724 21.794 7.44156 21.8029 7.44156 21.8554C7.44156 21.9088 7.64178 21.9167 9.00807 21.9167C10.0266 21.9167 10.5748 21.9312 10.5748 21.9577C10.5748 21.9847 12.0957 21.9986 15.0593 21.9986C18.0229 21.9986 19.5441 21.9847 19.5441 21.9577C19.5441 21.9312 20.0857 21.9167 21.0911 21.9167C22.4402 21.9167 22.6381 21.9088 22.6381 21.8554C22.6381 21.8029 22.7621 21.794 23.5193 21.794C24.2767 21.794 24.4006 21.7854 24.4006 21.7327C24.4006 21.6809 24.4941 21.6714 25.0078 21.6714C25.5213 21.6714 25.6148 21.662 25.6148 21.61C25.6148 21.5597 25.6844 21.5487 26.0066 21.5487C26.337 21.5487 26.3981 21.5386 26.3981 21.4844C26.3981 21.4358 26.4345 21.4216 26.5449 21.427C26.8309 21.4407 26.9073 21.4277 26.9073 21.3647C26.9073 21.3193 26.9529 21.3034 27.0836 21.3034C27.2142 21.3034 27.2598 21.2877 27.2598 21.242C27.2598 21.2013 27.2991 21.1807 27.3773 21.1807C27.4556 21.1807 27.4948 21.1603 27.4948 21.1194C27.4948 21.0767 27.5362 21.058 27.6318 21.058C27.7277 21.058 27.7691 21.0396 27.7691 20.9967C27.7691 20.956 27.8081 20.9353 27.8866 20.9353C27.9648 20.9353 28.0041 20.915 28.0041 20.874C28.0041 20.8404 28.0304 20.8127 28.0628 20.8127C28.095 20.8127 28.1216 20.7852 28.1216 20.7513C28.1216 20.7177 28.1479 20.69 28.1803 20.69C28.2125 20.69 28.2391 20.6625 28.2391 20.6287C28.2391 20.5951 28.2654 20.5673 28.2978 20.5673C28.33 20.5673 28.3566 20.5399 28.3566 20.506C28.3566 20.4653 28.3956 20.4447 28.4741 20.4447C28.5784 20.4447 28.5916 20.4312 28.5916 20.322C28.5916 20.2403 28.6111 20.1993 28.6503 20.1993C28.6825 20.1993 28.7091 20.1719 28.7091 20.138C28.7091 20.1044 28.7354 20.0767 28.7678 20.0767C28.8 20.0767 28.8266 20.0492 28.8266 20.0153C28.8266 19.9817 28.8529 19.954 28.8853 19.954C28.9175 19.954 28.9441 19.9265 28.9441 19.8927C28.9441 19.8591 28.9704 19.8313 29.0028 19.8313C29.0418 19.8313 29.0616 19.7906 29.0616 19.7087C29.0616 19.627 29.0811 19.586 29.1203 19.586C29.1593 19.586 29.1791 19.5453 29.1791 19.4633C29.1791 19.3816 29.1986 19.3407 29.2378 19.3407C29.2787 19.3407 29.2966 19.2975 29.2966 19.1976C29.2966 19.0978 29.3142 19.0546 29.3553 19.0546C29.3997 19.0546 29.4141 19.0041 29.4141 18.8458C29.4141 18.6768 29.4253 18.6414 29.4728 18.6603C29.5212 18.6797 29.5316 18.6378 29.5316 18.4194C29.5316 18.2116 29.544 18.1549 29.5903 18.1549C29.6373 18.1549 29.6491 18.0936 29.6491 17.8483C29.6491 17.6029 29.6608 17.5416 29.7078 17.5416C29.7565 17.5416 29.7666 17.4621 29.7666 17.0713C29.7666 16.6807 29.7764 16.6012 29.8253 16.6012C29.8749 16.6012 29.8841 16.5036 29.8841 15.9673C29.8841 15.4312 29.893 15.3336 29.9428 15.3336C29.9933 15.3336 30.0016 15.1972 30.0016 14.3522C30.0016 13.5073 30.0095 13.3709 30.0603 13.3709C30.1118 13.3709 30.1191 13.0824 30.1191 11.0198C30.1191 8.95701 30.1118 8.66849 30.0603 8.66849C30.0095 8.66849 30.0016 8.52988 30.0016 7.66556C30.0016 6.81154 29.9926 6.65894 29.9428 6.63882C29.8942 6.61944 29.8841 6.51002 29.8841 6.00634C29.8841 5.49236 29.8749 5.39742 29.8253 5.39742C29.7767 5.39742 29.7666 5.32234 29.7666 4.96808C29.7666 4.60473 29.7569 4.53874 29.7048 4.53874C29.6566 4.53874 29.6446 4.49678 29.6495 4.34443C29.661 3.99188 29.6516 3.92539 29.5903 3.92539C29.5433 3.92539 29.5316 3.86406 29.5316 3.61872C29.5316 3.37338 29.5198 3.31205 29.4728 3.31205C29.4317 3.31205 29.4141 3.26887 29.4141 3.16902C29.4141 3.06892 29.3962 3.02574 29.3553 3.02574C29.3043 3.02574 29.2681 2.81181 29.2914 2.64915C29.2937 2.63296 29.2679 2.63099 29.2343 2.64449C29.1955 2.65994 29.176 2.64817 29.1807 2.61235C29.1976 2.48502 29.1758 2.4124 29.1203 2.4124C29.0879 2.4124 29.0616 2.38492 29.0616 2.35106C29.0616 2.31745 29.035 2.28973 29.0028 2.28973C28.9636 2.28973 28.9441 2.249 28.9441 2.16706C28.9441 2.08537 28.9243 2.04439 28.8853 2.04439C28.8529 2.04439 28.8266 2.01692 28.8266 1.98306C28.8266 1.94945 28.8 1.92173 28.7678 1.92173C28.7354 1.92173 28.7091 1.89425 28.7091 1.86039C28.7091 1.82678 28.6825 1.79906 28.6503 1.79906C28.6179 1.79906 28.5916 1.76299 28.5916 1.71859C28.5916 1.66388 28.5728 1.64572 28.5328 1.66167C28.4922 1.67786 28.4741 1.65897 28.4741 1.60033C28.4741 1.5417 28.4557 1.52281 28.4153 1.539C28.3779 1.55396 28.3566 1.53851 28.3566 1.4968C28.3566 1.46074 28.33 1.43105 28.2978 1.43105C28.2654 1.43105 28.2391 1.40357 28.2391 1.36972C28.2391 1.33611 28.2144 1.30838 28.1843 1.30838C28.1545 1.30838 28.1197 1.2809 28.1072 1.24705C28.095 1.21344 28.0402 1.18571 27.9857 1.18571C27.9237 1.18571 27.8866 1.1629 27.8866 1.12438C27.8866 1.08365 27.8473 1.06305 27.7691 1.06305C27.6906 1.06305 27.6516 1.04268 27.6516 1.00171C27.6516 0.959023 27.6102 0.940377 27.5143 0.940377C27.4187 0.940377 27.3773 0.921977 27.3773 0.879043C27.3773 0.838317 27.3381 0.817708 27.2598 0.817708C27.1816 0.817708 27.1423 0.797345 27.1423 0.756374C27.1423 0.710005 27.0944 0.69504 26.9466 0.69504C26.7985 0.69504 26.7506 0.680074 26.7506 0.633706C26.7506 0.584638 26.6918 0.572371 26.4568 0.572371C26.2218 0.572371 26.1631 0.560104 26.1631 0.511037C26.1631 0.459762 26.0822 0.449703 25.6693 0.449703C25.2466 0.449703 25.1789 0.440871 25.1982 0.388369C25.2177 0.335376 25.1265 0.327034 24.5169 0.327034C23.9174 0.327034 23.8131 0.317957 23.8131 0.2657C23.8131 0.212707 23.6674 0.204366 22.7361 0.204366C21.8048 0.204366 21.6591 0.196024 21.6591 0.143032C21.6591 0.0893027 21.3782 0.0816972 19.3678 0.0816972C17.8664 0.0816972 17.0766 0.067713 17.0766 0.0409713C17.0766 0.0142295 16.3716 0 15.0398 0C13.7081 0 13.0031 0.0142295 13.0031 0.0409713ZM12.4865 6.58337C12.6656 6.69574 12.8195 6.78774 12.8287 6.78774C12.8381 6.78774 13.0237 6.89814 13.2414 7.03308C13.459 7.16801 13.6432 7.27841 13.651 7.27841C13.6585 7.27841 13.932 7.44402 14.2587 7.64642C14.5853 7.84882 14.8586 8.01443 14.8664 8.01443C14.8739 8.01443 15.1195 8.16163 15.4118 8.34146C15.7044 8.52129 15.9502 8.66849 15.958 8.66849C15.9659 8.66849 16.1944 8.80662 16.4656 8.97517C16.7367 9.14396 16.9656 9.28184 16.9741 9.28184C16.9826 9.28184 17.2568 9.44744 17.5835 9.64984C17.9101 9.85225 18.1834 10.0178 18.1909 10.0178C18.1982 10.0178 18.4276 10.156 18.7006 10.3245C18.9735 10.4933 19.2031 10.6312 19.2108 10.6312C19.2186 10.6312 19.3366 10.6996 19.4726 10.7833C19.7081 10.928 19.7769 10.9872 19.7784 11.0458C19.7791 11.0711 19.4489 11.2838 19.0543 11.5124C18.9467 11.575 18.6851 11.7335 18.4729 11.8647C18.261 11.996 18.0817 12.1032 18.0744 12.1032C18.0668 12.1032 17.8262 12.247 17.5393 12.4226C17.2526 12.5983 16.7621 12.8952 16.4498 13.0824C16.1375 13.2695 15.6304 13.5767 15.323 13.7649C15.0158 13.9531 14.7578 14.1069 14.7496 14.1069C14.7416 14.1069 14.4678 14.2725 14.1412 14.4749C13.8145 14.6773 13.5396 14.8429 13.5304 14.8429C13.5212 14.8429 13.4033 14.9133 13.2681 14.9992C13.1333 15.085 12.8994 15.2259 12.7486 15.3122C12.5977 15.3983 12.3958 15.52 12.2997 15.5823C12.2036 15.6447 12.1112 15.6869 12.0941 15.6758C12.0567 15.6518 12.052 6.445 12.0892 6.406C12.131 6.36257 12.1444 6.36846 12.4865 6.58337Z" fill="#FC0404"/>
</svg>
